<svg width="64" height="64" viewBox="0 0 64 64" fill="none" xmlns="http://www.w3.org/2000/svg">
<path fill-rule="evenodd" clip-rule="evenodd" d="M38.5976 0.242375L38.0076 0.472875L37.5288 0.85225L37.0498 1.23162L36.7063 1.86263L36.3629 2.49362L33.5564 17.0064L30.75 31.5191V31.621V31.7229L30.4628 31.795L30.1755 31.8671L29.2736 32.5005L28.3718 33.1338L27.8094 33.8481L27.2469 34.5625L26.5635 35.9544L25.8801 37.3464L25.127 38.3621L24.3739 39.378L23.3758 40.3667L22.3776 41.3555L21.1934 42.2456L20.009 43.1357L18.8483 43.8266L17.6875 44.5175L16.375 45.1505L15.0625 45.7835L13.6373 46.3345L12.212 46.8854L10.3873 47.4282L8.56252 47.9711L7.1024 48.2971L5.64227 48.6232L3.88865 48.9308L2.13502 49.2384L1.76615 49.4292L1.39715 49.62L1.13652 49.9514L0.875899 50.2826L0.739524 50.7891L0.603149 51.2956L0.939899 52.331L1.27677 53.3664L1.8759 54.3394L2.47502 55.3125L3.25465 56.1628L4.03415 57.0131L5.0484 57.803L6.06252 58.5929L6.93752 59.1286L7.81252 59.6644L8.74302 60.0901L9.67365 60.5159L11.118 61.0165L12.5625 61.5171L14.3125 61.9399L16.0625 62.3628L17.8125 62.6241L19.5625 62.8855L21.9375 62.959L24.3125 63.0325L25.6875 62.8853L27.0625 62.7379L28.5 62.4196L29.9375 62.1014L31.0034 61.6912L32.0693 61.2812L32.9409 60.8365L33.8125 60.3916L34.4371 59.963L35.0618 59.5342L35.7496 59.8935L36.4375 60.2526L37.375 60.4492L38.3125 60.6459L39.0325 60.5666L39.7524 60.4873L40.3253 60.3149L40.898 60.1425L41.7928 60.8947L42.6875 61.6469L43.6875 62.1307L44.6875 62.6146L45.5 62.8055L46.3125 62.9963H47.5625H48.8125L49.604 62.8097L50.3954 62.6231L51.2915 62.2055L52.1875 61.7879L52.9818 61.186L53.7761 60.5843L54.1693 60.7212L54.5625 60.8582L55.1159 61.0024L55.6694 61.1466L56.7131 61.1436L57.7569 61.1408L58.4721 60.9342L59.1875 60.7279L59.9355 60.3326L60.6836 59.9375L61.4471 59.1875L62.2105 58.4375L62.7308 57.375L63.251 56.3125L63.3979 55.3438L63.5449 54.375L63.398 53.4309L63.2513 52.4868L62.9773 51.8371L62.7034 51.1875L62.2369 50.4907L61.7705 49.7939L61.2958 49.3771L60.8211 48.9603L60.2543 48.6006L59.6875 48.241L58.9688 47.9787L58.25 47.7165V47.538V47.3596L57.7853 46.3985L57.3204 45.4375L56.254 44.3705L55.1875 43.3036L54.25 42.8446L53.3125 42.3855L52.5 42.1946L51.6875 42.0037L50.62 42.0019L49.5525 42L48.8075 42.1915L48.0625 42.3829L47.1875 42.7974L46.3125 43.2119L45.7239 43.6637L45.1353 44.1155L44.5989 43.8806L44.0625 43.6457L43.2776 43.4934L42.4928 43.341L41.8714 43.4146L41.25 43.4883L41.249 42.9004L41.248 42.3125L41.1218 41.1875L40.9955 40.0625L40.7964 38.875L40.5973 37.6875L40.3145 36.9072L40.0318 36.1271L39.6096 35.4188L39.1875 34.7105L38.534 33.9977L37.8805 33.285L40.6903 18.7496L43.5 4.21425L43.4988 3.51338L43.4975 2.8125L43.1966 2.16613L42.8956 1.51975L42.3759 1.01538L41.856 0.510875L41.1734 0.2555L40.4906 0L39.839 0.005875L39.1875 0.01175L38.5976 0.242375ZM40.6126 2.30612L40.9629 2.48725L41.1794 2.81763L41.3959 3.148L41.3898 3.66775L41.3836 4.1875L38.6944 18.0495L36.0053 31.9115L35.9546 31.962L35.9041 32.0125L35.1506 31.7586L34.3971 31.5047L33.6985 31.4226L33 31.3406V31.135V30.9295L35.6914 17.0117L38.3828 3.094L38.5119 2.85275L38.641 2.61162L39.0393 2.36875L39.4375 2.12587L39.85 2.1255L40.2624 2.125L40.6126 2.30612ZM12.4319 8.80688L12.125 9.11362V9.53325V9.95288L12.3785 10.2249L12.6319 10.497L12.9098 10.5585L13.1875 10.6199L22.1674 12.2011L31.1472 13.7823L31.4799 13.5346L31.8125 13.287L31.9286 12.961L32.0448 12.6351L31.903 12.3241L31.7614 12.0133L31.4745 11.8304L31.1875 11.6476L22.226 10.0737L13.2644 8.5H13.0015H12.7386L12.4319 8.80688ZM17.8069 15.1819L17.5 15.4886V15.91V16.3314L17.8073 16.6201L18.1145 16.9088L24.0451 17.9559L29.9758 19.003L30.306 18.8775L30.6363 18.7519L30.8023 18.3571L30.9683 17.9622L30.8836 17.6459L30.799 17.3294L30.4933 17.1133L30.1875 16.897L24.4215 15.886L18.6555 14.875H18.3846H18.1136L17.8069 15.1819ZM14.4695 19.8721L14.1553 20.1194L14.097 20.4241L14.0388 20.7289L14.1919 21.093L14.345 21.4573L14.7038 21.5946L15.0625 21.732L21.8918 22.9285L28.7209 24.125H28.9911H29.2614L29.5681 23.8181L29.875 23.5114V23.09V22.6686L29.5651 22.3774L29.2551 22.0863L22.2848 20.8556L15.3145 19.625H15.0491H14.7838L14.4695 19.8721ZM7.14677 20.2892L6.87502 20.5786V22.045V23.5114L7.1819 23.8181L7.48865 24.125H7.87502H8.2614L8.56815 23.8181L8.87502 23.5114V22.0275V20.5436L8.58577 20.2717L8.2964 20H7.85752H7.41865L7.14677 20.2892ZM3.17052 24.2712L2.90352 24.4005L2.76427 24.7061L2.62502 25.0117V25.2655V25.5193L2.9904 25.8846L3.35577 26.25H4.60727H5.85877L6.18502 26.126L6.51127 26.0019L6.67377 25.6154L6.83627 25.2289L6.77802 24.9241L6.71977 24.6194L6.40552 24.3721L6.09127 24.125L4.7644 24.1335L3.43752 24.1419L3.17052 24.2712ZM9.29453 24.4212L8.95002 24.7176V25.1741V25.6305L9.22815 25.909L9.50628 26.1875L10.9395 26.2295L12.3728 26.2715L12.7489 25.8954L13.125 25.5193V25.1875V24.8557L12.7597 24.4904L12.3943 24.125H11.0167H9.63902L9.29453 24.4212ZM7.2044 26.5091L6.87502 26.7681V28.2997V29.8314L7.16427 30.1033L7.45365 30.375H7.89252H8.3314L8.60327 30.0858L8.87502 29.7964V28.33V26.8636L8.56815 26.5569L8.2614 26.25H7.89752H7.53377L7.2044 26.5091ZM50.9375 26.4034L50.5625 26.5371L50.0578 26.8813L49.5531 27.2255L49.1888 27.894L48.8244 28.5625V29.375V30.1875L49.1921 30.8624L49.56 31.5373L50.2074 31.9671L50.8546 32.3969L51.5975 32.4642L52.3404 32.5316L52.9693 32.3228L53.5981 32.1139L54.0661 31.6594L54.534 31.205L54.7919 30.6338L55.0496 30.0625V29.375V28.6875L54.7919 28.1162L54.534 27.545L54.0686 27.093L53.6033 26.6411L53.0294 26.4455L52.4555 26.25L51.884 26.2599L51.3125 26.2698L50.9375 26.4034ZM52.6395 28.6116L52.9319 28.8482V29.375V29.9018L52.6395 30.1384L52.3473 30.375H51.918H51.4886L51.1819 30.0681L50.875 29.7614V29.375V28.9886L51.1819 28.6819L51.4886 28.375H51.918H52.3473L52.6395 28.6116ZM10.75 32.5856L10.5625 32.6569L10.2813 32.9128L10 33.1686V33.6075V34.0464L11.0393 35.0858L12.0786 36.125H12.545H13.0114L13.3181 35.8181L13.625 35.5114V35.1133V34.7152L12.5938 33.6751L11.5625 32.6351L11.25 32.5749L10.9375 32.5145L10.75 32.5856ZM15.8655 33.5788L14.7632 34.6574L14.7204 34.9225L14.6775 35.1875L14.7899 35.535L14.9022 35.8826L15.2625 36.069L15.6229 36.2552L15.924 36.1797L16.2251 36.1041L17.3001 35.0056L18.375 33.9072V33.569V33.2308L18.0096 32.8654L17.6443 32.5H17.306H16.9678L15.8655 33.5788ZM57.9375 32.6096L57.5625 32.7081L57.125 32.9304L56.6875 33.1525L56.2081 33.6075L55.7289 34.0625L55.459 34.5625L55.1893 35.0625V36.1875V37.3125L55.4686 37.8368L55.7479 38.3609L56.2018 38.8018L56.6556 39.2425L57.2341 39.5275L57.8125 39.8125L58.75 39.8099L59.6875 39.8074L60.2611 39.5446L60.8349 39.2819L61.3068 38.8099L61.7786 38.338L62.0756 37.7002L62.3725 37.0625V36.1875V35.3125L62.0803 34.6875L61.7879 34.0625L61.2149 33.5365L60.6419 33.0104L60.1695 32.813L59.697 32.6156L59.0048 32.5633L58.3125 32.511L57.9375 32.6096ZM35 33.9496L35.8125 34.3368L36.375 34.8084L36.9375 35.28L37.4613 35.9782L37.985 36.6764L38.2426 37.3499L38.5004 38.0233L38.4366 38.1265L38.3728 38.2296L37.2176 38.5122L36.0625 38.7948L34.25 38.8036L32.4375 38.8125L31.75 38.5785L31.0625 38.3445L30.3625 37.9772L29.6625 37.6101L29.1332 37.0709L28.6039 36.5315L28.8517 36.047L29.0994 35.5625L29.6158 34.9767L30.1323 34.3909L30.5826 34.1125L31.0331 33.8341L31.4853 33.6668L31.9375 33.4994L33.0625 33.531L34.1875 33.5626L35 33.9496ZM59.416 34.7955L59.8239 34.9659L60.0578 35.3229L60.2916 35.6797V36.1842V36.6886L60.1379 36.976L59.984 37.2634L59.5858 37.5062L59.1875 37.7491L58.775 37.7495L58.3626 37.75L58.0124 37.5689L57.6621 37.3877L57.4481 37.0611L57.2341 36.7345L57.2276 36.264L57.2211 35.7934L57.4166 35.4155L57.612 35.0375L58.0248 34.8341L58.4375 34.6307L58.7228 34.6279L59.008 34.625L59.416 34.7955ZM11.1089 38.3351L10 39.4202V39.8759V40.3314L10.2893 40.6032L10.5786 40.875H11.0167H11.4548L12.5399 39.7661L13.625 38.6572V38.319V37.9808L13.2597 37.6154L12.8943 37.25H12.556H12.2178L11.1089 38.3351ZM15.0569 37.5569L14.75 37.8636V38.33V38.7964L15.7893 39.8358L16.8286 40.875L17.258 40.871L17.6875 40.867L17.8859 40.7147L18.0842 40.5625L18.2379 40.2739L18.3916 39.9854L18.3144 39.6335L18.2372 39.2817L17.1964 38.2659L16.1555 37.25H15.7597H15.3636L15.0569 37.5569ZM27.8762 38.8139L28.0329 39.0028L28.9228 39.5515L29.8125 40.1003L30.7206 40.4231L31.6287 40.7459L32.7555 40.896L33.8823 41.046L35.4099 40.8991L36.9375 40.7521L37.9004 40.5196L38.8633 40.2871L38.9294 40.6124L38.9954 40.9375L39.1288 42.546L39.2621 44.1546L39.2248 44.182L39.1875 44.2095L38.605 44.603L38.0224 44.9966L37.5674 45.5281L37.1125 46.0596L36.6935 46.897L36.2746 47.7344L36.1899 48.2359L36.1051 48.7374L35.4589 49.1068L34.8125 49.4761L34.2263 50.0819L33.6399 50.6875L33.2024 51.4179L32.7648 52.1484L32.5699 53.0051L32.375 53.8619V54.4248V54.9878L32.5132 55.6501L32.6513 56.3125L33.0444 57.125L33.4375 57.9375L33.4759 58.0215L33.5144 58.1056L32.661 58.604L31.8078 59.1024L30.6898 59.5651L29.5718 60.0279L28.4095 60.3228L27.2474 60.6175L26.227 60.7455L25.2068 60.8734L25.1626 60.8293L25.1185 60.7851L26.0905 60.0596L27.0625 59.334L28.3547 58.0732L29.6469 56.8125L29.8234 56.475L30 56.1374V55.8881V55.639L29.7038 55.2945L29.4074 54.95H28.9541H28.5008L27.0317 56.39L25.5625 57.8301L24.789 58.4164L24.0156 59.0026L23.0384 59.6087L22.0611 60.2149L21.418 60.5407L20.7749 60.8666L19.6688 60.7425L18.5625 60.6184L17.4345 60.4385L16.3065 60.2586L15.1454 59.9914L13.9844 59.724L14.0234 59.688L14.0625 59.652L15.875 58.9385L17.6875 58.225L19.5625 57.27L21.4375 56.3149L22.969 55.293L24.5007 54.2711L25.469 53.463L26.4375 52.655L27.4393 51.6087L28.4412 50.5625L29.0139 49.8125L29.5866 49.0625L29.7309 48.7895L29.875 48.5164V48.19V47.8636L29.5608 47.5494L29.2465 47.2351L28.7823 47.2738L28.318 47.3125L27.5199 48.3125L26.7218 49.3125L26.2097 49.875L25.6975 50.4375L24.7055 51.3397L23.7135 52.2421L22.388 53.1669L21.0625 54.0916L19.6646 54.8691L18.2669 55.6468L16.5396 56.3985L14.8125 57.1502L12.7913 57.8251L10.7699 58.5H10.5377H10.3055L9.37152 58.0526L8.43752 57.6054L7.28127 56.841L6.12502 56.0768V55.9759V55.875H6.41752H6.71015L8.32102 55.5486L9.93202 55.2223L11.5959 54.7357L13.2597 54.2492L14.8485 53.6159L16.4375 52.9824L17.25 52.585L18.0625 52.1875L18.238 51.8664L18.4135 51.5451L18.3285 51.2069L18.2437 50.8686L17.9969 50.6219L17.75 50.375H17.4165H17.083L15.7284 51.0045L14.3736 51.634L12.9057 52.1214L11.4375 52.6086L10.25 52.9162L9.06252 53.224L7.81252 53.4841L6.56252 53.7444L5.44502 53.9326L4.32752 54.1208L4.11502 53.9284L3.9024 53.736L3.51165 53.0029L3.1209 52.2699L2.94252 51.7643L2.76415 51.2586L3.2259 51.1819L3.68752 51.1053L5.37502 50.7934L7.06252 50.4815L8.9394 50.003L10.8163 49.5246L12.5644 48.9351L14.3125 48.3456L15.9746 47.6172L17.6368 46.8889L18.716 46.3005L19.7953 45.7122L21.2414 44.7455L22.6875 43.7786L23.75 42.8493L24.8125 41.9199L25.608 41.0536L26.4035 40.1875L26.9628 39.4062L27.522 38.625H27.6206H27.7194L27.8762 38.8139ZM53.134 44.6489L54.0625 45.1079L54.6599 45.6802L55.2573 46.2528L55.6246 46.832L55.992 47.4113L56.1929 48.0494L56.3938 48.6875L56.527 49.0371L56.6603 49.3867L57.0114 49.5684L57.3626 49.75H57.5516H57.7406L58.4324 50.0089L59.1241 50.2676L59.8091 50.8936L60.494 51.5196L60.9033 52.3514L61.3125 53.1831L61.3103 54.3727L61.308 55.5625L60.9753 56.2772L60.6425 56.992L60.0751 57.5986L59.5076 58.2052L58.8426 58.5418L58.1775 58.8783L57.3935 59.0164L56.6094 59.1545L55.8401 59.0031L55.0709 58.8517L54.4416 58.5329L53.8125 58.2139L53.4621 58.2238L53.1119 58.2336L52.3276 58.9673L51.5435 59.7007L50.9858 60.0276L50.428 60.3545L49.6203 60.6304L48.8125 60.9062L47.625 60.9061L46.4375 60.9059L45.625 60.645L44.8125 60.3841L44.0625 59.9395L43.3125 59.4949L42.4831 58.6225L41.6538 57.75H41.342H41.0303L40.2964 58.0894L39.5625 58.4287L38.5625 58.4321L37.5625 58.4354L36.9375 58.1493L36.3125 57.863L35.7708 57.3377L35.229 56.8125L34.9103 56.1899L34.5916 55.5674L34.5293 54.7905L34.4669 54.0137L34.6153 53.4131L34.7638 52.8125L35.1951 52.157L35.6265 51.5015L36.282 51.0705L36.9375 50.6394L37.272 50.5584L37.6066 50.4775L37.8164 50.2458L38.0261 50.0139L38.1908 49.0659L38.3554 48.1179L38.6708 47.5798L38.9861 47.0416L39.509 46.5692L40.0319 46.0969L40.602 45.8446L41.1723 45.5924L41.9544 45.5296L42.7366 45.4669L43.3883 45.68L44.04 45.8931L44.4865 46.1966L44.933 46.5H45.3446H45.7563L46.5508 45.7609L47.3453 45.0218L47.7664 44.802L48.1875 44.5821L48.875 44.3536L49.5625 44.1251L50.884 44.1575L52.2054 44.19L53.134 44.6489ZM49.7411 46.2895L49.1699 46.45L48.5931 46.788L48.0164 47.126L47.7581 47.4885L47.5 47.8511V48.1654V48.4795L47.5776 48.6819L47.6553 48.8843L48.009 49.0671L48.3626 49.25H48.607H48.8514L49.3696 48.817L49.888 48.3839L50.3109 48.3045L50.7338 48.2253L51.1753 48.371L51.6169 48.5168L51.9229 48.8804L52.2289 49.244L52.3115 49.6205L52.3943 49.997L52.714 50.2485L53.0338 50.5H53.3975H53.7614L54.0681 50.1931L54.375 49.8864V49.4541V49.0219L53.9669 48.2335L53.5589 47.4453L52.955 46.9889L52.3511 46.5324L51.8793 46.391L51.4074 46.2496L50.8599 46.1894L50.3125 46.129L49.7411 46.2895Z" fill="#896442"/>
</svg>
