<svg width="55" height="58" viewBox="0 0 55 58" fill="none" xmlns="http://www.w3.org/2000/svg">
<path fill-rule="evenodd" clip-rule="evenodd" d="M24.4067 0.40625L24.145 0.6875L24.0555 1.75L23.9659 2.8125L23.861 3.09375L23.7563 3.375H23.5676H23.379L22.2286 3.871L21.0784 4.36688L20.8829 4.21588L20.6875 4.06488L19.8991 3.40737L19.1108 2.75H18.7167H18.3228L16.6614 4.41138L15 6.07275V6.40312V6.7335L15.8603 7.77738L16.7205 8.82113L16.463 9.31688L16.2054 9.8125L15.8625 10.6875L15.5196 11.5625L14.7286 11.659L13.9375 11.7556L13.3972 11.8244L12.857 11.893L12.616 12.134L12.375 12.375V14.6931V17.0114L12.669 17.3054L12.9631 17.5995L14.0753 17.6845L15.1875 17.7696L15.3839 17.8236L15.5801 17.8776L15.8051 18.595L16.0301 19.3125L16.3276 19.9021L16.625 20.4918V20.6144V20.737L16.0225 21.4622L15.42 22.1875L15.1963 22.5304L14.9725 22.8731L15.0435 23.1561L15.1145 23.439L16.7864 25.0945L18.4583 26.75H18.7122H18.9662L19.3269 26.4755L19.6875 26.2009L20.38 25.6109L21.0724 25.0209L21.9425 25.4344L22.8125 25.8479L23.3358 26.0037L23.8589 26.1597L23.9256 26.6111L23.9923 27.0625L24.0756 27.9289L24.159 28.7954L24.4487 29.0851L24.7386 29.375H27.0569H29.375L29.6082 29.1418L29.8416 28.9084L29.9156 28.3605L29.9896 27.8125L30.0705 26.9818L30.1514 26.151L30.5239 26.0765L30.8965 26.002L31.9224 25.5211L32.9484 25.0404L34.0013 25.9054L35.0541 26.7704L35.4334 26.6969L35.8125 26.6232L37.4062 25.021L39 23.4186V23.0346V22.6505L38.1875 21.6733L37.375 20.696V20.5944V20.4929L37.7357 19.7776L38.0966 19.0625L38.2578 18.5239L38.419 17.9853L38.6157 17.8827L38.8125 17.7804L39.9248 17.6899L41.0369 17.5995L41.331 17.3054L41.625 17.0114V14.6931V12.375L41.384 12.134L41.143 11.893L40.6027 11.8244L40.0625 11.7556L39.2669 11.659L38.4714 11.5625L38.196 10.8125L37.9207 10.0625L37.6 9.44038L37.2791 8.81812L38.1396 7.76875L39 6.71925V6.40125V6.08325L37.3498 4.41663L35.6994 2.75H35.328H34.9565L34.072 3.4745L33.1875 4.199L33.0359 4.2915L32.8844 4.384L32.2859 4.083L31.6875 3.78212L30.9191 3.504L30.1507 3.22587L30.0726 2.51925L29.9945 1.8125L29.9211 1.20512L29.8478 0.59775L29.6114 0.361375L29.375 0.125H27.0218H24.6686L24.4067 0.40625ZM28.3054 2.65625L28.3854 3.4375L28.4536 3.90575L28.5218 4.374L28.8116 4.602L29.1014 4.83L29.7951 4.98513L30.4888 5.14038L31.7052 5.76538L32.9216 6.39038L33.18 6.3255L33.4384 6.26075L34.2784 5.56787L35.1184 4.875H35.219H35.3198L36.1159 5.67838L36.9121 6.48162L36.1435 7.4445L35.375 8.40725L35.376 8.67237L35.3769 8.9375L35.9941 10.1657L36.6113 11.3939L36.7624 12.069L36.9135 12.7441L37.1372 12.9844L37.3611 13.2246L37.9618 13.2955L38.5625 13.3664L39.2188 13.4449L39.875 13.5235V14.7501V15.9766L38.6825 16.0661L37.49 16.1555L37.2583 16.359L37.0265 16.5625L36.7533 17.5L36.48 18.4375L35.9275 19.4829L35.375 20.5282V20.7604V20.9925L36.1774 21.9784L36.9799 22.9641L36.1247 23.8126L35.2697 24.6611L34.315 23.8931L33.3601 23.125H33.0493H32.7383L31.8379 23.6149L30.9375 24.1047L29.8396 24.4434L28.7416 24.7821L28.615 25.0186L28.4885 25.2551L28.3701 26.2838L28.2519 27.3125L28.251 27.4688L28.25 27.625H27.0218H25.7935L25.6676 26.3816L25.5416 25.1383L25.3814 24.9451L25.221 24.752L24.3293 24.4884L23.4375 24.2249L22.3682 23.6749L21.299 23.125H20.9734H20.6476L19.75 23.875L18.8524 24.625H18.7733H18.6943L17.9096 23.8474L17.125 23.0697V22.9651V22.8606L17.875 21.9696L18.625 21.0786V20.7358V20.3929L18.1938 19.6653L17.7625 18.9375L17.3729 17.75L16.9834 16.5625L16.7423 16.3555L16.5012 16.1484L15.3131 16.0594L14.125 15.9702V14.7469V13.5235L14.7188 13.4535L15.3125 13.3836L15.9757 13.3041L16.6389 13.2246L16.8627 12.9844L17.0865 12.7441L17.2376 12.069L17.3888 11.3939L18.0059 10.1657L18.6231 8.9375L18.624 8.67237L18.625 8.40725L17.8564 7.44425L17.0877 6.48137L17.9368 5.62575L18.7859 4.77012L19.7716 5.57263L20.7575 6.375H21.0211H21.2849L21.8902 6.0025L22.4956 5.63L23.2165 5.33175L23.9375 5.0335L24.3125 4.94987L24.6875 4.86637L25.015 4.73725L25.3426 4.60813L25.4706 4.327L25.5987 4.04588L25.6891 2.9605L25.7796 1.875H27.0025H28.2255L28.3054 2.65625ZM25.1756 6.1775L24.4137 6.35137L23.7381 6.637L23.0625 6.9225L22.2944 7.40175L21.5263 7.88087L20.6504 8.80287L19.7745 9.72488L19.2629 10.7688L18.7512 11.8125L18.5385 12.625L18.3258 13.4375L18.3311 14.75L18.3364 16.0625L18.5548 16.875L18.773 17.6875L19.2089 18.5814L19.6448 19.4753L20.3164 20.2895L20.988 21.1039L21.7752 21.662L22.5625 22.2201L23.1875 22.5303L23.8125 22.8404L24.4375 23.0446L25.0625 23.2488L26.0295 23.3711L26.9965 23.4934L28.0295 23.3645L29.0625 23.2356L29.9169 22.9391L30.7711 22.6427L31.477 22.2276L32.1829 21.8125L33.2025 20.8041L34.2223 19.7956L34.7919 18.6166L35.3614 17.4375L35.5725 16.3794L35.7835 15.3213L35.7158 14.1857L35.648 13.0501L35.3167 12.0564L34.9855 11.0625L34.4912 10.2256L33.997 9.38863L33.208 8.588L32.4191 7.78738L31.5256 7.2565L30.632 6.72563L29.6598 6.412L28.6875 6.09825L27.3125 6.05087L25.9375 6.0035L25.1756 6.1775ZM28.6881 7.94287L29.4289 8.13587L30.2456 8.53662L31.0625 8.9375L31.8807 9.75L32.699 10.5625L33.1591 11.4504L33.6194 12.3383L33.8079 13.1379L33.9963 13.9375L33.9981 14.6987L34 15.46L33.7528 16.4269L33.5055 17.3936L33.159 18.0369L32.8125 18.6801L32.0303 19.5126L31.2479 20.3451L30.4053 20.7864L29.5625 21.2276L28.8125 21.4466L28.0625 21.6656L26.9375 21.657L25.8125 21.6484L25 21.39L24.1875 21.1316L23.3913 20.6595L22.595 20.1875L21.9296 19.4692L21.2641 18.7511L20.8179 17.8442L20.3715 16.9375L20.1751 16L19.9786 15.0625L20.061 14.2021L20.1434 13.3417L20.3824 12.5681L20.6213 11.7945L21.1208 11.0218L21.6203 10.2489L22.2724 9.627L22.9244 9.005L23.7616 8.56513L24.5987 8.12512L25.3306 7.948L26.0625 7.77087L27.005 7.76038L27.9475 7.75L28.6881 7.94287ZM30 11.8431L29.8125 11.914L27.9572 13.7065L26.1021 15.4991L25.0837 14.562L24.0654 13.625H23.7202H23.375L23.125 13.875L22.875 14.125V14.4756V14.8264L24.2932 16.2256L25.7116 17.625H26.0475H26.3834L28.6821 15.4276L30.9809 13.2301L31.0529 13.0424L31.125 12.8545V12.6286V12.4028L30.9062 12.1497L30.6875 11.8968L30.4375 11.8345L30.1875 11.7723L30 11.8431ZM38.4375 33.8779L37.8125 33.9676L37.317 34.1761L36.8215 34.3846L34.973 35.3898L33.1244 36.3949L30.156 36.3498L27.1875 36.3047L26.5 36.0378L25.8125 35.7707L24.801 35.3229L23.7896 34.8749L22.801 34.6109L21.8125 34.347L20.1875 34.3377L18.5625 34.3284L17.5 34.6034L16.4375 34.8783L15.1875 35.4914L13.9375 36.1044L12.6275 37.2355L11.3175 38.3665L10.7101 38.6971L10.1027 39.0277L10.0099 38.9201L9.91712 38.8125L9.49875 37.3978L9.0805 35.983L8.82487 35.804L8.56938 35.625H4.55825H0.547125L0.273625 35.8799L0 36.1348V36.5476V36.9605L1.186 46.699L2.372 56.4375L2.44925 56.9195L2.5265 57.4015L2.76325 57.6382L3 57.875H8.88325H14.7664L15.0142 57.7424L15.262 57.6097L15.3743 57.3144L15.4866 57.0189L14.7361 54.5583L13.9858 52.0976L14.0241 52.0602L14.0625 52.0228L16.3333 50.5815L18.604 49.1403L19.119 49.0016L19.6341 48.8629L25.1607 49.8834L30.6875 50.9039L32.4375 50.8421L34.1875 50.7805L35.2884 50.4511L36.3894 50.1219L36.9979 49.8135L37.6065 49.5051L42.5845 46.0885L47.5625 42.6719L50.7216 40.5023L53.8809 38.3327L53.954 38.0414L54.0271 37.75L53.9539 37.4584L53.8807 37.1666L53.3713 36.5879L52.8619 36.0091L52.0276 35.5984L51.1934 35.1875L50.1495 35.143L49.1056 35.0985L48.362 35.3696L47.6185 35.6409L47.1316 35.2552L46.6449 34.8698L46.0412 34.599L45.4375 34.3283L44.5625 34.3244L43.6875 34.3205L43.0456 34.607L42.4038 34.8934L41.7331 34.5226L41.0625 34.152L40.625 34.0249L40.1875 33.8978L39.625 33.843L39.0625 33.7881L38.4375 33.8779ZM40.1316 35.6989L40.5132 35.7728L40.4738 35.8913L40.4342 36.0098L39.1865 36.6787L37.9388 37.3478L37.1997 36.9746L36.4606 36.6015L36.6366 36.4832L36.8125 36.365L37.4194 36.0488L38.0262 35.7325L38.5444 35.6287L39.0625 35.525L39.4062 35.575L39.75 35.625L40.1316 35.6989ZM22.429 36.3234L23.1875 36.5168L24.6059 37.1424L26.0241 37.7681L26.8559 37.9444L27.6875 38.1206L31.5265 38.1229L35.3656 38.125L36.0365 38.376L36.7074 38.627L37.2101 39.0574L37.713 39.4878L38.0723 40.174L38.4315 40.8601L38.372 40.9089L38.3125 40.9575L35.375 40.8321L32.4375 40.7066L30.7965 40.8408L29.1554 40.975L28.8831 41.1206L28.6109 41.2664L28.5101 41.5387L28.4094 41.8112L28.5304 42.1582L28.6512 42.5052L28.8794 42.6274L29.1076 42.7495L30.689 42.6004L32.2705 42.4514L35.964 42.6073L39.6575 42.763L39.9538 42.4847L40.25 42.2064V41.9325V41.6585L44.5938 39.3075L48.9375 36.9564L49.7241 36.9007L50.5109 36.8451L51.0581 37.0541L51.6053 37.2631L51.74 37.4254L51.8746 37.5876L44.3454 42.7626L36.8161 47.9375L36.1268 48.2774L35.4375 48.6174L34.2825 48.8862L33.1274 49.1553L31.595 49.0951L30.0625 49.035L25.25 48.1246L20.4375 47.2142L19.625 47.2199L18.8125 47.2255L18.282 47.4194L17.7515 47.6134L15.6761 48.9316L13.6007 50.25H13.5085H13.4163L12.0018 45.5938L10.5871 40.9375L10.5463 40.8125L10.5052 40.6875L11.3188 40.3244L12.1321 39.9614L13.0806 39.1369L14.0291 38.3125L14.6709 37.8274L15.3125 37.3423L16.2101 36.9214L17.1077 36.5004L17.8976 36.3201L18.6875 36.1399L19.125 36.082L19.5625 36.0241L20.6165 36.077L21.6705 36.13L22.429 36.3234ZM45.454 36.2691L45.8125 36.4409L45.7965 36.5641L45.7806 36.6875L43.9215 37.691L42.0625 38.6945L40.9816 39.2842L39.9007 39.8741L39.578 39.2569L39.2552 38.6396L40.1589 38.1466L41.0625 37.6535L42.4375 36.9095L43.8125 36.1655L44 36.0864L44.1875 36.0071L44.6415 36.0522L45.0956 36.0973L45.454 36.2691ZM10.4899 46.5944L13.2922 55.8125L13.347 55.9688L13.4018 56.125H8.769H4.13638L4.06525 55.7188L3.99425 55.3125L2.93463 46.5915L1.875 37.8706V37.6227V37.375L4.78125 37.3756L7.6875 37.3763L10.4899 46.5944ZM7.271 51.3861L6.72962 51.6613L6.41212 52.1409L6.09475 52.6204L6.031 53.1866L5.96712 53.7529L6.17925 54.3081L6.39125 54.8634L6.819 55.2389L7.24675 55.6145L7.77962 55.7601L8.3125 55.9058L8.86187 55.761L9.41113 55.6162L9.75925 55.3684L10.1074 55.1205L10.3664 54.7015L10.6254 54.2825L10.7041 53.7074L10.783 53.1324L10.4574 52.4725L10.1318 51.8125L9.67912 51.5071L9.22663 51.2018L8.51962 51.1564L7.8125 51.1111L7.271 51.3861ZM8.87062 53.1167L9 53.3586V53.5514V53.7443L8.6875 53.949L8.375 54.1538L8.0625 53.949L7.75 53.7443V53.4596V53.175L7.9 53.025L8.05 52.875H8.39563H8.74125L8.87062 53.1167Z" fill="#896442"/>
</svg>
