<svg width="65" height="64" viewBox="0 0 65 64" fill="none" xmlns="http://www.w3.org/2000/svg">
<path fill-rule="evenodd" clip-rule="evenodd" d="M9.69735 0.259712L9.22627 0.508305L7.13646 3.64321L5.04665 6.77799L5.00642 8.55874L4.9662 10.3394L4.49437 10.4148L4.02242 10.4904L3.68875 10.7527L3.35521 11.0152L3.17033 11.3727L2.98544 11.7302L2.98594 17.514L2.98632 23.2978L3.23466 23.705L3.48288 24.1121L3.89 24.3603L4.29712 24.6086L4.64065 24.609L4.98419 24.6095V28.8461V33.0827L3.55633 33.1247L2.12836 33.1666L1.78382 33.4242L1.43942 33.6818L1.18183 34.0262L0.924239 34.3708L0.88314 35.9827L0.842041 37.5947L1.11649 38.083L1.39095 38.5712L1.86165 38.8358L2.33235 39.1004H2.75559H3.1787L3.84628 41.1304L4.51386 43.1604L4.83953 43.7687L5.1652 44.3771L5.57082 44.6865L5.97656 44.996L6.51098 45.1537L7.04539 45.3115L7.07774 51.6375L7.1101 57.9635H6.7527H6.3953L5.98231 58.2446L5.56932 58.5257L5.30798 58.8783L5.04665 59.2311V60.9617V62.6922L5.30423 63.0372L5.56182 63.3821L5.90673 63.6397L6.25176 63.8973H12.1451H18.0385L18.4463 63.6064L18.8542 63.3154L19.071 62.9193L19.2877 62.5232V60.9617V59.4001L19.0716 59.0051L18.8555 58.6103L18.5219 58.3478L18.1883 58.0855L17.7074 58.0085L17.2265 57.9316V51.639V45.3465H18.3455H19.4647L19.5011 50.5095L19.5375 55.6726L19.9155 56.2839L20.2937 56.8951L20.9052 57.2732L21.5165 57.6512L32.6914 57.6845L43.8661 57.7177L44.5196 57.4185L45.1732 57.1193L45.5179 56.6672L45.8627 56.2151L46.03 55.7464L46.1973 55.2777L46.2028 50.3121L46.2083 45.3465H47.3326H48.4568V51.639V57.9316L47.9759 58.0085L47.4951 58.0855L47.1614 58.3478L46.8279 58.6103L46.6118 59.0051L46.3956 59.4001V60.9617V62.5232L46.6124 62.9193L46.8291 63.3154L47.237 63.6064L47.6449 63.8973H53.5383H59.4316L59.7766 63.6397L60.1215 63.3821L60.3791 63.0372L60.6367 62.6922V60.9617V59.2311L60.3753 58.8783L60.114 58.5257L59.701 58.2446L59.288 57.9635H58.9306H58.5732L58.6056 51.6375L58.6379 45.3115L59.1724 45.1537L59.7068 44.996L60.1125 44.6865L60.5181 44.3771L60.8438 43.7687L61.1695 43.1604L61.8371 41.1304L62.5046 39.1004H62.9277H63.351L63.8364 38.8276L64.3219 38.5548L64.582 38.0175L64.842 37.4802L64.8006 35.9254L64.7591 34.3708L64.5015 34.0262L64.2439 33.6818L63.8995 33.4242L63.555 33.1666L62.1292 33.1247L60.7036 33.0828L60.6702 19.931L60.6367 6.77911L58.5464 3.64296L56.4561 0.506931L55.9593 0.253466L55.4624 0L32.8154 0.00549654L10.1684 0.0109931L9.69735 0.259712ZM13.229 15.4278V28.9818H10.0435H6.85801V26.7956V24.6095H7.21428H7.57056L7.98355 24.3284L8.39654 24.0474L8.65788 23.6947L8.91921 23.3419V17.5014V11.6607L8.56918 11.2018L8.21928 10.743L7.85713 10.5557L7.49498 10.3685H7.17656H6.85801V8.90353V7.43845L8.7006 4.65907L10.5432 1.87982L11.8861 1.87682L13.229 1.87382V15.4278ZM50.5805 2.99811V4.12241H32.8417H15.1028V2.99811V1.87382H32.8417H50.5805V2.99811ZM56.9827 4.65907L58.8253 7.43845V18.2102V28.9818H55.6398H52.4543V15.4278V1.87382L53.7972 1.87682L55.1401 1.87982L56.9827 4.65907ZM50.5507 11.2742L50.518 16.5521H49.3938H48.2695L48.2009 15.4903L48.1324 14.4284L47.9305 14.0537L47.7287 13.6789L47.3119 13.2869L46.8953 12.8949L46.4581 12.6669L46.0209 12.4389L43.6356 12.3902L41.2504 12.3415L40.5412 12.4886L39.832 12.6358L39.3106 13.0336L38.7891 13.4313L38.48 14.0319L38.1711 14.6324L38.1136 15.6242L38.0561 16.6158L26.6107 16.5839L15.1653 16.5521L15.1327 11.2742L15.1001 5.99623H32.8417H50.5833L50.5507 11.2742ZM7.10785 17.489V22.7357H5.98356H4.85926V17.489V12.2423H5.98356H7.10785V17.489ZM46.0111 14.6063L46.3332 14.9092V15.764V16.6188L43.1789 16.5854L40.0246 16.5521L39.9858 15.9405L39.9469 15.3289L40.0904 14.9827L40.2338 14.6364L40.6289 14.4364L41.024 14.2364L43.3566 14.27L45.689 14.3035L46.0111 14.6063ZM38.0884 19.6133V20.7382L26.6268 20.7064L15.1653 20.6745L15.1292 19.5814L15.0931 18.4884H26.5907H38.0884V19.6133ZM46.3332 20.9519V23.4155L45.6188 24.1374L44.9044 24.8594H43.2174H41.5304L40.7463 24.0822L39.9622 23.3051V20.8967V18.4884H43.1477H46.3332V20.9519ZM50.5541 19.5814L50.518 20.6745H49.3938H48.2695L48.2334 19.5814L48.1973 18.4884H49.3938H50.5903L50.5541 19.5814ZM38.0884 22.9699V23.3291L38.1709 23.7418L38.2535 24.1547L39.1967 25.1419L40.1399 26.1292L40.4891 26.3778L40.8384 26.6265L41.5246 26.6973L42.2108 26.7682V27.9304V29.0927L42.5033 29.4329L42.7958 29.7729H43.2099H43.6239L43.8542 29.4885L44.0846 29.2039V27.9685V26.7332H44.5883H45.092L45.5564 26.5403L46.0209 26.3474L46.7533 25.6346L47.4858 24.9218L47.8464 24.4346L48.207 23.9474V23.2791V22.6108H49.3938H50.5805V27.8575V33.1042H32.8417H15.1028V27.8575V22.6108H26.5956H38.0884V22.9699ZM13.229 31.9799V33.1042H10.0435H6.85801V31.9799V30.8556H10.0435H13.229V31.9799ZM58.8253 31.9799V33.1042H55.6398H52.4543V31.9799V30.8556H55.6398H58.8253V31.9799ZM62.9477 36.1023V37.2266H32.8417H2.7356V36.1023V34.978H32.8417H62.9477V36.1023ZM60.4493 39.1993V39.2982L59.8883 40.9795L59.3273 42.6607L59.1875 42.928L59.0477 43.1952L58.7432 43.334L58.4388 43.4727H32.8417H7.24451L6.94008 43.334L6.63565 43.1952L6.49586 42.928L6.35607 42.6607L5.79505 40.9795L5.23403 39.2982V39.1993V39.1004H32.8417H60.4493V39.1993ZM15.3527 49.5938V53.8411H12.1672H8.98167V49.5938V45.3465H12.1672H15.3527V49.5938ZM44.3344 50.1622V54.9778L44.1517 55.3312L43.9689 55.6847L43.7667 55.7623L43.5644 55.8399H32.8417H22.1189L21.9167 55.7623L21.7144 55.6847L21.5317 55.3312L21.3489 54.9778V50.1622V45.3465H32.8417H44.3344V50.1622ZM56.7017 49.5938V53.8411H53.5162H50.3307V49.5938V45.3465H53.5162H56.7017V49.5938ZM25.8453 47.7117L25.5321 47.8071L25.1582 48.0022L24.7842 48.1973L24.4549 48.5521L24.1256 48.9067L23.9012 49.344L23.6766 49.7812L23.6769 50.5932L23.6774 51.4052L23.9454 51.9227L24.2135 52.4401L24.7165 52.8707L25.2196 53.3013L25.7034 53.4463L26.1874 53.5913H26.7078H27.2282L27.6859 53.4L28.1436 53.2088L28.5699 52.8837L28.996 52.5587L29.2936 51.9195L29.5912 51.2802L29.5925 50.5864L29.5937 49.8927L29.2685 49.24L28.9432 48.5874L28.5416 48.2811L28.14 47.9747L27.602 47.7849L27.0639 47.5951L26.6111 47.6058L26.1584 47.6166L25.8453 47.7117ZM33.9194 47.7708L33.4357 47.951L32.9874 48.3136L32.5394 48.6764L32.2568 49.2288L31.9742 49.7812L31.9707 50.5659L31.9672 51.3507L32.1356 51.7527L32.3041 52.1547L32.6615 52.5786L33.0188 53.0024L33.6485 53.2956L34.2783 53.5888L34.8259 53.59L35.3736 53.5913L35.8575 53.4463L36.3413 53.3013L36.8434 52.8716L37.3453 52.4419L37.5261 52.0925L37.7069 51.743L37.8348 51.1723L37.9626 50.6015L37.8292 49.9791L37.6956 49.3566L37.3351 48.859L36.9746 48.3613L36.4073 48.0288L35.8399 47.6963L35.1215 47.6435L34.4032 47.5908L33.9194 47.7708ZM27.3355 49.7923L27.7199 50.1157V50.6103V51.1047L27.3893 51.4112L27.0588 51.7175H26.6567H26.2546L25.935 51.4661L25.6155 51.2148L25.5354 50.8506L25.4554 50.4865L25.6573 50.0961L25.8592 49.7059L26.1336 49.5953L26.4082 49.4848L26.6797 49.4768L26.9512 49.4689L27.3355 49.7923ZM35.4576 49.6525L35.8127 49.836L35.9483 50.2253L36.084 50.6145L35.91 51.031L35.736 51.4475L35.4838 51.5826L35.2315 51.7175H34.8429H34.4543L34.1477 51.4108L33.841 51.1042V50.6228V50.1412L33.9972 49.9455L34.1533 49.7498L34.4032 49.6132L34.653 49.4765L34.8779 49.4726L35.1026 49.4689L35.4576 49.6525ZM15.3527 56.8393V57.9635H12.1672H8.98167V56.8393V55.715H12.1672H15.3527V56.8393ZM56.7017 56.8393V57.9635H53.5162H50.3307V56.8393V55.715H53.5162H56.7017V56.8393ZM17.45 60.9304L17.4139 62.0235L12.1359 62.0561L6.85801 62.0887V60.963V59.8374H12.172H17.4861L17.45 60.9304ZM58.8253 60.963V62.0887L53.5474 62.0561L48.2695 62.0235L48.2334 60.9304L48.1973 59.8374H53.5113H58.8253V60.963Z" fill="#896442"/>
</svg>
