<svg width="64" height="65" viewBox="0 0 64 65" fill="none" xmlns="http://www.w3.org/2000/svg">
<path fill-rule="evenodd" clip-rule="evenodd" d="M42.9152 1.09835L42.5272 1.42472L42.4456 1.75022L42.3639 2.0756L42.5127 2.53185L42.6616 2.98797L43.0725 3.61297L43.4834 4.23797L44.2453 5.36297L45.0073 6.48797L45.6759 7.80047L46.3444 9.11297L46.8069 10.2928L47.2694 11.4727L47.696 13.1372L48.1225 14.8017L48.324 16.3323L48.5255 17.863L48.4626 20.363L48.3996 22.863L48.2489 23.6447L48.0981 24.4263L48.1784 24.7463L48.2588 25.0662L48.6519 25.2315L49.045 25.3968L49.3795 25.2801L49.7141 25.1635L49.8486 24.8882L49.983 24.613L50.1271 23.8005L50.2714 22.988L50.3391 20.4255L50.407 17.863L50.1958 16.2028L49.9844 14.5427L49.6258 13.0778L49.267 11.613L48.8706 10.4927L48.4743 9.37247L47.9313 8.14797L47.3884 6.92347L46.6765 5.70572L45.9645 4.48797L45.5254 3.88222L45.0861 3.2766L45.6994 3.58772L46.3125 3.89897L47.625 4.76485L48.9375 5.63072L50.0625 6.57085L51.1875 7.51097L52.5351 8.91022L53.8829 10.3095L54.8005 11.5425L55.7181 12.7755L56.3684 13.852L57.0186 14.9285L57.7474 16.4582L58.4762 17.988L58.8655 19.0983L59.2547 20.2087L59.6242 21.6727L59.9939 23.1367L60.1903 24.3748L60.3865 25.613L60.4599 27.738L60.5332 29.863L60.388 31.3441L60.2427 32.8252L59.9931 34.1188L59.7435 35.4125L59.3619 36.7438L58.9803 38.0751L58.421 39.4691L57.8618 40.863L57.2295 42.0505L56.5974 43.238L55.9077 44.3005L55.2183 45.363L54.4084 46.4025L53.5985 47.4421L53.393 47.3631L53.1875 47.2841L52.1852 47.2132L51.183 47.1425L50.7567 46.5241L50.3305 45.9058L49.6965 45.348L49.0625 44.7901L48.3069 44.4157L47.5511 44.0413L46.8694 43.8598L46.1875 43.6785L45.12 43.677L44.0525 43.6755L43.3177 43.8668L42.5829 44.0582L41.8226 44.4572L41.0625 44.8563L40.2136 45.6956L39.3647 46.5348L38.6511 46.6811L37.9375 46.8272L37.25 47.1492L36.5625 47.4712L35.8402 48.1918L35.1179 48.9126L34.7303 49.7411L34.3425 50.5695L34.2776 51.7162L34.2129 52.863L33.662 53.488L33.1113 54.113L32.6903 54.988L32.2692 55.863L32.1184 56.6442L31.9675 57.4255L31.3275 57.4253L30.6875 57.4252L29.3125 57.2992L27.9375 57.1732L26.5625 56.916L25.1875 56.6587L24.0625 56.3445L22.9375 56.0301L21.75 55.5875L20.5625 55.1447L19.125 54.4321L17.6875 53.7195L16.5436 53.0101L15.3999 52.3007L14.2656 51.4241L13.1314 50.5475L11.9231 49.3927L10.715 48.238L9.72863 47.0565L8.74225 45.8751L7.9545 44.6815L7.16663 43.488L6.76038 42.7671L6.35425 42.0462L7.52087 42.8081L8.6875 43.57L10.5625 44.4907L12.4375 45.4115L13.9579 45.9156L15.4781 46.4196L17.0204 46.728L18.5625 47.0365L19.873 47.1851L21.1834 47.3336L23.5605 47.2657L25.9375 47.1977L27.4024 46.9348L28.8671 46.672L30.3399 46.2477L31.8125 45.8235L32.8125 45.4277L33.8125 45.032L35.1639 44.358L36.5154 43.6841L37.7889 42.8531L39.0625 42.0222L40.1971 41.1043L41.3317 40.1863L42.6727 38.7983L44.0139 37.4102L44.9954 36.0883L45.9769 34.7665L46.7544 33.408L47.532 32.0495L48.14 30.6437L48.7479 29.238L48.749 28.9511L48.75 28.6641L48.4431 28.3573L48.1364 28.0505H47.846H47.5556L47.2941 28.2337L47.0325 28.4168L46.7451 29.14L46.4577 29.863L45.8537 31.0798L45.2496 32.2967L44.7324 33.1423L44.2151 33.988L43.338 35.1755L42.4608 36.363L40.9491 37.8696L39.4375 39.3763L38.3331 40.198L37.2289 41.0195L35.8956 41.8145L34.5625 42.6095L33.0114 43.2761L31.4603 43.9427L29.9718 44.3711L28.4834 44.7995L26.9605 45.0758L25.4375 45.3523L22.6875 45.3503L19.9375 45.3483L18.6875 45.1342L17.4375 44.9202L16.2334 44.612L15.0294 44.3038L13.9209 43.9156L12.8125 43.5273L11.278 42.7802L9.7435 42.0331L7.9655 40.8317L6.1875 39.6302L5.75 39.4708L5.3125 39.3115L5.01875 39.306L4.725 39.3005L4.3 39.7255L3.875 40.1505V40.5351V40.9197L4.17575 41.7187L4.47638 42.5176L5.06738 43.5652L5.6585 44.613L6.39475 45.7193L7.131 46.8258L8.05112 47.9693L8.97125 49.113L10.5169 50.6156L12.0625 52.1183L13.0625 52.8787L14.0625 53.6391L15.25 54.4238L16.4375 55.2086L18.26 56.1055L20.0825 57.0023L21.385 57.4593L22.6875 57.9165L23.8125 58.228L24.9375 58.5395L26.3125 58.7881L27.6875 59.0367L29.053 59.1686L30.4184 59.3005H31.2471H32.0757L32.352 60.1582L32.6283 61.016L33.2355 61.8805L33.8426 62.7451L34.515 63.2588L35.1875 63.7726L35.8414 64.0998L36.4953 64.4272L37.2789 64.612L38.0625 64.7967L40.3125 64.7946L42.5625 64.7925L42.7779 64.6288L42.9934 64.4653L43.1045 64.1647L43.2156 63.8642L43.1019 63.5378L42.988 63.2113L42.7127 63.0722L42.4375 62.9331L40.0625 62.8935L37.6875 62.8538L36.9644 62.5665L36.2414 62.2792L35.4979 61.591L34.7544 60.9026L34.346 60.073L33.9375 59.2432V57.9906V56.738L34.341 55.8861L34.7445 55.0342L35.466 54.3408L36.1875 53.6476V52.3177V50.988L36.4967 50.3826L36.8059 49.7773L37.2404 49.3958L37.6748 49.0143L38.2093 48.778L38.7438 48.5416L39.5838 48.4405L40.4238 48.3393L40.7383 47.9136L41.0529 47.488L41.6321 46.9125L42.2114 46.3368L42.9495 45.9753L43.6875 45.6137L45.0625 45.6133L46.4375 45.613L47.2751 46.0097L48.1126 46.4066L48.6744 46.9682L49.236 47.53L49.6139 48.2783L49.9916 49.0268L50.3396 49.1431L50.6875 49.2593L51.1875 49.1442L51.6875 49.0292L52.3651 49.106L53.0428 49.1827L53.5679 49.415L54.0931 49.6473L54.6188 50.1222L55.1444 50.5971L55.437 51.1745L55.7295 51.7517L55.8143 52.2031L55.8989 52.6543L56.1681 52.8985L56.4375 53.1427L57.25 53.2207L58.0625 53.2987L58.9606 53.74L59.8586 54.1811L60.3652 54.7565L60.8717 55.332L61.2171 56.035L61.5625 56.738V58.0505V59.363L61.2171 60.066L60.8717 60.769L60.3652 61.3445L59.8586 61.9198L58.9049 62.3915L57.9512 62.863L52.0269 62.9255L46.1026 62.988L45.8639 63.2831L45.625 63.5782V63.8825V64.1868L45.9385 64.5003L46.252 64.8139L52.2197 64.7747L58.1875 64.7356L59.0474 64.4027L59.9072 64.0697L60.5841 63.6036L61.261 63.1375L61.793 62.5458L62.3249 61.9542L62.7144 61.2211L63.104 60.488L63.302 59.72L63.5 58.9518V58.0505V57.1491L63.302 56.381L63.104 55.613L62.7082 54.863L62.3125 54.113L61.4969 53.293L60.6813 52.4731L59.8857 52.0756L59.0904 51.6781L58.3465 51.5245L57.6027 51.3708L57.2444 50.5806L56.8861 49.7905L56.1311 49.0041L55.376 48.2178L55.956 47.4778L56.5359 46.738L57.4076 45.4255L58.2794 44.113L59.2574 42.113L60.2352 40.113L60.671 38.846L61.1066 37.5791L61.4876 36.0335L61.8685 34.488L62.0899 33.0505L62.3112 31.613L62.3076 28.6755L62.304 25.738L62.0812 24.3258L61.8584 22.9137L61.4997 21.4508L61.1413 19.988L60.6914 18.6996L60.2415 17.4113L59.6826 16.151L59.1239 14.8906L58.4781 13.7518L57.8325 12.613L57.1096 11.5505L56.3867 10.488L55.5709 9.47072L54.7549 8.4536L53.4639 7.14847L52.1729 5.84335L50.968 4.8841L49.7631 3.92485L48.4129 3.04247L47.0625 2.16022L45.8125 1.53847L44.5625 0.916848L43.9328 0.844348L43.3031 0.771973L42.9152 1.09835ZM34.2285 2.11172L33.8946 2.29822L32.8709 4.2786L31.8471 6.25897L30.0946 7.12347L28.3423 7.98797L27.9836 8.31935L27.625 8.65072V9.13972V9.62872L27.9688 9.95197L28.3125 10.2753L30.0933 11.1635L31.874 12.0516L32.8058 13.9121L33.7376 15.7726L34.0731 16.0365L34.4087 16.3005H34.8058H35.2029L35.4699 16.0516L35.737 15.8028L36.7389 13.8953L37.7407 11.988L39.6945 11.0066L41.6483 10.0253L41.8299 9.59085L42.0114 9.15622L41.787 8.6971L41.5625 8.23797L39.616 7.2486L37.6695 6.2591L36.7154 4.36672L35.7612 2.47447L35.5288 2.26397L35.2961 2.05347L34.9292 1.98935L34.5625 1.92535L34.2285 2.11172ZM35.5625 6.20922L36.3125 7.61297L37.683 8.31822L39.0535 9.02347L39.09 9.13285L39.1265 9.24235L37.69 9.95735L36.2536 10.6723L35.5252 12.1251L34.7967 13.578L34.6007 13.2787L34.4046 12.9796L33.8314 11.8381L33.2581 10.6966L31.7991 9.91835L30.3403 9.14022L31.8029 8.39372L33.2655 7.64722L33.974 6.22385L34.6825 4.80047L34.7475 4.80297L34.8125 4.80547L35.5625 6.20922ZM6.96025 9.67985L6.63688 9.93435L5.69075 11.8022L4.74463 13.6701L2.87675 14.6162L1.00888 15.5623L0.754375 15.8857L0.5 16.2092V16.6422V17.0752L0.858625 17.4066L1.21725 17.738L2.99463 18.613L4.772 19.488L5.76925 21.4577L6.7665 23.4276L7.14237 23.622L7.51825 23.8163L7.87113 23.7388L8.22412 23.6613L8.45575 23.4073L8.6875 23.1535L9.625 21.3207L10.5625 19.488L12.3953 18.5505L14.228 17.613L14.4819 17.3812L14.7359 17.1496L14.8134 16.7966L14.8909 16.4437L14.6965 16.0678L14.5021 15.692L12.5323 14.6947L10.5625 13.6975L9.6875 11.9201L8.8125 10.1427L8.48112 9.7841L8.14975 9.42547H7.71675H7.28375L6.96025 9.67985ZM10.6643 15.8201L12.1774 16.5787L10.6825 17.3458L9.1875 18.113L8.42037 19.608L7.65325 21.1028L6.89463 19.5897L6.13613 18.0766L4.668 17.3272L3.19988 16.578L4.50612 15.9256L5.8125 15.2732L6.04537 15.0681L6.27812 14.863L6.96525 13.4941L7.65238 12.1251L8.40175 13.5933L9.15112 15.0616L10.6643 15.8201ZM23.5 18.7578L23.0625 18.815L22.25 19.0547L21.4375 19.2945L20.6375 19.7662L19.8375 20.238L19.1375 20.938L18.4375 21.638L17.9655 22.438L17.4934 23.238L17.2524 24.014L17.0114 24.79L16.9263 25.7297L16.8411 26.6693L16.605 26.7443L16.369 26.8192L15.6409 27.4933L14.9128 28.1675L14.5501 28.9527L14.1875 29.738V30.9255V32.113L14.5468 32.8907L14.906 33.6686L15.5468 34.2722L16.1875 34.876L16.7725 35.1576L17.3575 35.4393L18.1728 35.5662L18.988 35.6931L25.5877 35.652L32.1875 35.6108L33.0752 35.2871L33.963 34.9633L34.6691 34.4946L35.3754 34.026L35.8705 33.4635L36.3656 32.9008L36.6726 32.3772L36.9795 31.8535L37.2554 31.0457L37.5312 30.238L37.5329 29.0505L37.5344 27.863L37.2236 26.9752L36.9129 26.0875L36.4429 25.3792L35.9728 24.671L35.3396 24.1172L34.7066 23.5635L33.9201 23.1762L33.1338 22.7891L32.4731 22.6701L31.8125 22.5512L31.3514 22.4841L30.8901 22.417L30.6306 21.997L30.371 21.577L29.5034 20.7585L28.6357 19.9401L27.7241 19.5103L26.8125 19.0807L26.2356 18.943L25.6586 18.8053L24.7981 18.753L23.9375 18.7006L23.5 18.7578ZM25.3886 20.6781L26.0614 20.8056L26.8399 21.17L27.6184 21.5342L28.2626 22.1361L28.907 22.738L29.2722 23.3841L29.6374 24.0301L29.8214 24.1828L30.0055 24.3356L30.9715 24.37L31.9375 24.4042L32.6441 24.6692L33.3506 24.9343L33.8976 25.352L34.4446 25.7696L34.7907 26.2691L35.1369 26.7686L35.3985 27.4407L35.6601 28.113L35.6595 29.0505L35.6589 29.988L35.3875 30.6946L35.1161 31.4011L34.6898 31.9596L34.2632 32.5181L33.6815 32.9035L33.0999 33.2887L32.4561 33.5133L31.8125 33.738H24.9375H18.0625L17.5625 33.4682L17.0625 33.1983L16.7254 32.8432L16.3883 32.488L16.1941 32.0232L16 31.5585V30.9255V30.2925L16.1941 29.8277L16.3883 29.363L16.7254 29.0077L17.0625 28.6526L17.5263 28.414L17.99 28.1755H18.1735H18.3569L18.6249 27.8347L18.893 27.4938L18.8119 26.795L18.7307 26.096L18.8765 25.292L19.0222 24.488L19.3454 23.8005L19.6685 23.113L20.4905 22.2925L21.3125 21.472L21.9375 21.1711L22.5625 20.8701L23.25 20.7207L23.9375 20.5715L24.3267 20.561L24.7159 20.5505L25.3886 20.6781Z" fill="#896442"/>
</svg>
