<svg width="62" height="60" viewBox="0 0 62 60" fill="none" xmlns="http://www.w3.org/2000/svg">
<path fill-rule="evenodd" clip-rule="evenodd" d="M29.875 0.084882L29.3125 0.128382L29.0179 0.195007L28.7234 0.261507L28.8039 0.849507L28.8845 1.43751L28.9521 1.78126L29.0199 2.12501H29.5567H30.0937L30.4894 2.04588L30.8849 1.96676L30.8487 1.01601L30.8125 0.0652568L30.625 0.053257L30.4375 0.0413818L29.875 0.084882ZM32.8504 1.01363L32.8037 1.93751L32.8706 2.01526L32.9375 2.09313L33.8247 2.17063L34.712 2.24826L34.8475 1.28238L34.9831 0.316382L34.9474 0.280757L34.9116 0.245007L33.9042 0.167382L32.8969 0.0896318L32.8504 1.01363ZM25.5937 0.902257L24.75 1.16226V1.30688V1.45151L25.0115 2.22576L25.273 3.00001L25.3552 3.00101L25.4375 3.00213L26.2812 2.78588L27.125 2.56963L27.1221 2.50363L27.1192 2.43751L26.8976 1.57101L26.6759 0.704507L26.5566 0.673382L26.4375 0.642257L25.5937 0.902257ZM36.8277 1.55701L36.625 2.36388L36.6251 2.52576L36.6254 2.68751L37.3439 2.91276L38.0625 3.13788L38.2024 3.19888L38.3424 3.26001L38.676 2.35976L39.0096 1.45963L38.9111 1.37126L38.8125 1.28276L38.007 1.01638L37.2015 0.750007H37.1159H37.0304L36.8277 1.55701ZM21.8125 2.46401L20.9375 2.90451L20.8927 2.94488L20.848 2.98538L21.3199 3.77388L21.7917 4.56251L21.8405 4.62163L21.8891 4.68088L22.6944 4.24663L23.4996 3.81251L23.4937 3.68751L23.4879 3.56251L23.0876 2.79301L22.6875 2.02351L21.8125 2.46401ZM40.5269 3.06488L40.125 3.87976V3.93388V3.98801L40.8817 4.43151L41.6384 4.87501L41.7255 4.87288L41.8125 4.87063L42.2976 4.05588L42.7827 3.24101L42.7351 3.19613L42.6875 3.15113L41.8646 2.70063L41.0417 2.25001H40.9852H40.9286L40.5269 3.06488ZM18.2716 4.81701L17.4807 5.50188L18.1582 6.20688L18.8356 6.91188L19.5116 6.37476L20.1875 5.83763L20.1729 5.68551L20.1584 5.53351L19.6266 4.82926L19.095 4.12501L19.0787 4.12851L19.0625 4.13201L18.2716 4.81701ZM43.9629 5.13713L43.4882 5.76013L43.4285 5.91601L43.3686 6.07188L44.0407 6.65213L44.7129 7.23238L45.4232 6.51451L46.1336 5.79663L45.367 5.14826L44.6004 4.50001L44.5189 4.50713L44.4375 4.51426L43.9629 5.13713ZM26.4057 6.72176L26.1241 6.76751L24.7217 8.61301L23.3195 10.4585L21.2297 11.1799L19.14 11.9013L18.9137 12.1509L18.6875 12.4006L18.6449 13.7003L18.6022 15H10.108H1.61361L1.30686 15.3069L0.999989 15.6136V15.944V16.2744L2.37499 18.5625L3.74999 20.8506V21V21.1494L2.37499 23.4375L0.999989 25.7256V26.056V26.3864L1.30686 26.6931L1.61361 27H10.108H18.6022L18.6449 28.2998L18.6875 29.5994L18.9137 29.8491L19.14 30.0988L21.2297 30.8201L23.3195 31.5415L24.7165 33.3801L26.1136 35.2186L26.4249 35.2781L26.7361 35.3378L28.7119 34.7349L30.6875 34.1321H31H31.3125L33.3031 34.7394L35.2937 35.3468L35.6344 35.228L35.9751 35.1093L37.3215 33.3319L38.6679 31.5546L40.7601 30.831L42.8522 30.1074L43.0824 29.8534L43.3125 29.5994L43.3551 28.2998L43.3977 27H51.892H60.3864L60.6931 26.6931L61 26.3864V26.056V25.7256L59.625 23.4375L58.25 21.1494V21V20.8506L59.625 18.5625L61 16.2744V15.944V15.6136L60.6931 15.3069L60.3864 15H51.892H43.3977L43.3551 13.7003L43.3125 12.4006L43.0824 12.1466L42.8522 11.8926L40.7619 11.1696L38.6715 10.4466L37.279 8.61401L35.8864 6.78138L35.5751 6.72188L35.2639 6.66226L33.2881 7.26513L31.3125 7.86788L31.009 7.87151L30.7055 7.87501L29.3215 7.44726L27.9375 7.01963L27.3125 6.84776L26.6875 6.67601L26.4057 6.72176ZM15.3189 7.77513L14.7001 8.53601L15.1799 8.93876L15.6596 9.34163L15.9902 9.53688L16.3209 9.73226L16.9066 9.00013L17.4924 8.26813L16.7605 7.63413L16.0285 7.00001L15.983 7.00713L15.9375 7.01426L15.3189 7.77513ZM46.8261 7.96451L46.125 8.55388V8.65563V8.75738L46.6409 9.40988L47.1566 10.0625L47.2346 10.0624H47.3125L48.0312 9.57601L48.75 9.08963V8.97176V8.85388L48.169 8.11451L47.5881 7.37501H47.5576H47.5271L46.8261 7.96451ZM29.085 9.45826L30.998 10.0416L32.955 9.45013L34.9121 8.85851L35.0611 9.02301L35.21 9.18751L36.2507 10.5625L37.2915 11.9375L37.3846 12.0451L37.4777 12.1528L39.3951 12.8111L41.3125 13.4695L41.375 15.5285L41.4375 17.5875L42.0189 18.45L42.6002 19.3125L43.1905 20.1563L43.7806 21L43.1905 21.8438L42.6002 22.6875L42.0189 23.55L41.4375 24.4125L41.375 26.4703L41.3125 28.528L39.3871 29.1956L37.4617 29.8633L37.3766 29.9629L37.2915 30.0625L36.2507 31.4375L35.21 32.8125L35.0611 32.977L34.9121 33.1415L32.955 32.5499L30.998 31.9584L29.0465 32.5535L27.095 33.1485L26.9425 32.9805L26.79 32.8125L25.7492 31.4375L24.7085 30.0625L24.6154 29.9549L24.5222 29.8473L22.6049 29.1889L20.6875 28.5305L20.625 26.4715L20.5625 24.4125L19.9811 23.55L19.3997 22.6875L18.8095 21.8438L18.2194 21L18.8095 20.1563L19.3997 19.3125L19.9811 18.45L20.5625 17.5875L20.625 15.5298L20.6875 13.472L22.6129 12.8044L24.5382 12.1368L24.6254 12.0371L24.7126 11.9375L25.8764 10.4063L27.04 8.87501H27.1061H27.1721L29.085 9.45826ZM13.0686 11.1683L12.625 11.9615V12.0789V12.1964L13.455 12.6056L14.285 13.015L14.3722 12.9138L14.4594 12.8125L14.8549 12.0954L15.2502 11.3783L14.7189 11.0504L14.1875 10.7225L13.9106 10.5488L13.6337 10.375H13.573H13.5122L13.0686 11.1683ZM49.039 11.2909L48.3905 11.6875L48.32 11.7608L48.2494 11.8339L48.6345 12.6045L49.0195 13.375H49.1265H49.2335L50.023 13.0399L50.8125 12.7048L50.8517 12.6776L50.891 12.6506L50.444 11.7628L49.9969 10.875L49.8421 10.8846L49.6875 10.8941L49.039 11.2909ZM29.4204 12.128L28.7782 12.2439L27.9526 12.5435L27.1271 12.8433L26.4072 13.2654L25.6875 13.6875L24.6871 14.6875L23.6867 15.6875L23.2151 16.5L22.7436 17.3125L22.4126 18.3125L22.0816 19.3125V21V22.6875L22.4126 23.6875L22.7436 24.6875L23.214 25.5L23.6842 26.3125L24.688 27.3125L25.6919 28.3125L26.5021 28.7845L27.3125 29.2564L28.3125 29.5874L29.3125 29.9184H31H32.6875L33.6875 29.5874L34.6875 29.2564L35.5 28.7849L36.3125 28.3133L37.3129 27.3129L38.3132 26.3125L38.7849 25.5L39.2564 24.6875L39.5874 23.6875L39.9184 22.6875V21V19.3125L39.5874 18.3125L39.2564 17.3125L38.7849 16.5L38.3132 15.6875L37.3129 14.6871L36.3125 13.6868L35.5 13.2151L34.6875 12.7436L33.6875 12.4251L32.6875 12.1068L31.375 12.0594L30.0625 12.012L29.4204 12.128ZM32.3207 14.1336L33.0625 14.2673L34.0861 14.7585L35.1096 15.2498L35.9376 16.0859L36.7656 16.9221L37.26 17.9433L37.7542 18.9645L37.9026 19.9823L38.0509 21L37.9026 22.0178L37.7542 23.0355L37.26 24.0568L36.7656 25.0779L35.9376 25.9141L35.1096 26.7503L34.0726 27.2523L33.0355 27.7543L32.0177 27.9026L31 28.0509L29.9822 27.9026L28.9645 27.7543L27.9442 27.2604L26.924 26.7665L26.0787 25.9213L25.2335 25.076L24.7396 24.0558L24.2457 23.0355L24.0974 22.0178L23.9491 21L24.0974 19.9823L24.2457 18.9645L24.7396 17.9443L25.2335 16.924L26.0787 16.0788L26.924 15.2335L27.9307 14.7481L28.9375 14.2629L29.5625 14.1454L30.1875 14.028L30.8832 14.014L31.5791 14L32.3207 14.1336ZM18.3895 17.2188L18.2702 17.4375L17.1351 19.0585L16 20.6796V21.0029V21.3263L17.25 23.1065L18.5 24.8866V24.9434V25H11.1294H3.75874L4.87936 23.1381L5.99999 21.2763V21V20.7238L4.87936 18.8619L3.75874 17H11.1337H18.5087L18.3895 17.2188ZM57.1206 18.8619L56 20.7238V21V21.2763L57.1206 23.1381L58.2412 25H50.8706H43.5V24.9434V24.8866L44.75 23.1065L46 21.3263V21V20.6738L44.75 18.8935L43.5 17.1134V17.0566V17H50.8706H58.2412L57.1206 18.8619ZM32.0702 19.9498L29.9531 22.5106L28.8509 21.4135L27.7487 20.3165L27.0322 21.033L26.3157 21.7495L27.8766 23.3165L29.4375 24.8835L29.7362 24.9596L30.0351 25.0359L30.3295 24.9243L30.6239 24.8125L33.1829 21.75L35.742 18.6875L35.0272 18.0343L34.3125 17.3811L34.25 17.385L34.1875 17.3889L32.0702 19.9498ZM12.4375 28.7088L11.6875 29.0235L11.6546 29.055L11.6217 29.0866L11.9249 29.762L12.228 30.4375L12.4036 30.67L12.5792 30.9024L13.2584 30.5614L13.9375 30.2204L14.0847 30.1024L14.232 29.9844L13.8671 29.2109L13.5022 28.4375L13.3449 28.4158L13.1875 28.3939L12.4375 28.7088ZM47.9872 29.5313L47.8406 29.8125L47.5384 30.3354L47.236 30.8584L47.9519 31.3163L48.6677 31.7743L48.8184 31.832L48.9689 31.8899L49.422 31.0656L49.875 30.2414V30.1475V30.0536L49.0601 29.6519L48.2452 29.25H48.1895H48.1337L47.9872 29.5313ZM14.4065 32.2074L13.6255 32.7683L13.9957 33.2904L14.3659 33.8125L14.6039 34.1125L14.8417 34.4124L15.0869 34.2375L15.332 34.0625L15.8617 33.606L16.3915 33.1494L15.8117 32.3873L15.2321 31.625L15.2097 31.6358L15.1875 31.6465L14.4065 32.2074ZM45.5537 33.2043L44.9542 33.9059L45.6807 34.6039L46.4071 35.302L46.7099 34.9323L47.0126 34.5625L47.3805 34.1081L47.7482 33.6538L47.0929 33.1628L46.4375 32.6718L46.2952 32.5871L46.1531 32.5026L45.5537 33.2043ZM16.9371 35.3323L16.3265 36.0395L17.0671 36.6968L17.8079 37.354L17.8794 37.3098L17.9509 37.2656L18.5262 36.5333L19.1015 35.801L18.4346 35.213L17.7677 34.625H17.6577H17.5476L16.9371 35.3323ZM42.875 35.8183L42.1875 36.3815L42.2276 36.5299L42.2677 36.6781L42.7199 37.3079L43.172 37.9375L43.2051 37.9838L43.2382 38.0299L43.8401 37.5881L44.442 37.1463L44.6497 36.9166L44.8576 36.687L44.2101 35.971L43.5625 35.2551L42.875 35.8183ZM7.81249 36.051L7.43749 36.2171L7.10586 36.5289L6.77411 36.8406L6.55436 37.2641L6.33461 37.6875L6.33399 38.3971L6.33336 39.1069L5.99061 38.7399L5.64786 38.373L5.10511 38.1268L4.56249 37.8805L3.90224 37.8778L3.24199 37.875L2.83974 38.0435L2.43749 38.2121L2.02574 38.5593L1.61399 38.9065L1.37286 39.3793L1.13161 39.852L1.05236 40.3478L0.973114 40.8435L1.17699 41.5155L1.38086 42.1875L4.40911 46.4914L7.43749 50.7953L8.56636 51.8039L9.69536 52.8125L11.2511 54.1909L12.807 55.5693L13.5901 56.5034L14.3732 57.4375L14.7386 58.125L15.1039 58.8125L15.188 59.2658L15.272 59.719L15.841 59.797L16.4099 59.875H16.846H17.2822L17.1967 59.2306L17.1112 58.5861L16.8131 57.8525L16.515 57.1188L15.9274 56.2781L15.3397 55.4375L14.8261 54.8411L14.3125 54.2449L11.75 51.9833L9.18749 49.7218L8.83474 49.2671L8.48199 48.8125L5.81311 44.9978L3.14436 41.1831L3.06511 40.8674L2.98586 40.5516L3.25199 40.2134L3.51811 39.875H3.93699H4.35586L6.87124 42.8081L9.38649 45.7411L9.72449 45.9764L10.0625 46.2116L13.9141 47.5084L17.7656 48.805L17.9087 49.34L18.0519 49.875H19.0259H20L19.9992 49.5938L19.9986 49.3125L19.8599 48.8129L19.7212 48.3134L18.5481 46.2909L17.375 44.2685V44.0886V43.9088L17.6341 43.5794L17.8931 43.25H18.2351H18.5772L18.7832 43.4063L18.9892 43.5625L20.8814 46.25L22.7735 48.9375L23.06 49.5L23.3465 50.0625L23.6017 50.8904L23.857 51.7183L24.0086 53.0154L24.1602 54.3125L24.0902 57.1563L24.0204 60H24.9915H25.9626L26.0437 58.8558L26.125 57.7116L26.1246 55.762L26.1242 53.8125L25.9864 52.6875L25.8486 51.5625L25.6089 50.625L25.3692 49.6875L24.9989 48.896L24.6286 48.1046L22.7229 45.396L20.8172 42.6875L20.3362 42.1629L19.8552 41.6381L19.307 41.4288L18.7586 41.2194L18.0036 41.2739L17.2487 41.3285L16.721 41.6994L16.1934 42.0703L15.8232 42.6689L15.4531 43.2676L15.4555 44.04L15.458 44.8125L15.8025 45.4864L16.147 46.1603L15.9797 46.0983L15.8125 46.0364L15.185 45.8303L14.5575 45.624L13.2147 42.9058L11.8721 40.1875L11.5457 38.844L11.2192 37.5005L10.8737 36.9558L10.5284 36.411L9.97474 36.143L9.42111 35.875L8.80424 35.8799L8.18749 35.8848L7.81249 36.051ZM52.1875 36.0459L51.8125 36.2205L51.4116 36.642L51.0106 37.0634L50.837 37.563L50.6634 38.0625L50.3755 39.25L50.0876 40.4375L48.7991 43.0194L47.5107 45.6014L46.8491 45.8189L46.1875 46.0364L46.0329 46.0934L45.8784 46.1505L46.1889 45.5949L46.4994 45.0394L46.579 44.459L46.6585 43.8786L46.502 43.3195L46.3455 42.7605L45.9224 42.2663L45.4994 41.772L44.931 41.4969L44.3625 41.2216L43.5589 41.2729L42.7551 41.324L42.2214 41.6966L41.6875 42.0691L40.3414 43.9409L38.9951 45.8125L38.0591 47.1974L37.1231 48.5821L36.7491 49.6071L36.375 50.6321L36.1987 51.6598L36.0224 52.6875L35.9336 53.9096L35.8447 55.1316L35.936 57.5659L36.0274 60H37.0007H37.9741L37.9557 56.5313L37.9375 53.0625L38.1654 51.9375L38.3934 50.8125L38.7354 49.9964L39.0775 49.1804L41.0505 46.3999L43.0235 43.6194L43.2081 43.4346L43.3929 43.25H43.7589H44.125L44.375 43.5L44.625 43.75V44.0341V44.3184L43.6129 46.0654L42.6009 47.8125L42.3734 48.2559L42.1459 48.6991L42.059 49.1621L41.9721 49.625H42.9629H43.9537L44.156 49.2006L44.3584 48.7764L48.1969 47.4969L52.0354 46.2174L52.5049 45.7933L52.9744 45.369L55.2685 42.6813L57.5625 39.9935L57.8437 39.9208L58.125 39.8479L58.4417 39.9274L58.7585 40.0069L58.9034 40.3248L59.0481 40.6426L58.9144 40.9969L58.7806 41.3513L55.8994 45.4653L53.018 49.5791L51.1652 51.1849L49.3125 52.7905L48.2722 53.8015L47.232 54.8125L46.6326 55.5625L46.0332 56.3125L45.6467 57.001L45.2602 57.6896L45.0854 58.1885L44.9105 58.6875L44.8197 59.3001L44.729 59.9126L45.6957 59.8395L46.6626 59.7664L46.7669 59.602L46.8711 59.4375L46.8731 59.2109L46.875 58.9843L47.2064 58.3076L47.5376 57.6309L48.3342 56.6353L49.1309 55.6396L51.2216 53.8041L53.3125 51.9686L54.0244 51.2896L54.7362 50.6106L57.604 46.5138L60.4719 42.417L60.6801 42.0143L60.8884 41.6115L60.9576 41.0245L61.027 40.4375L60.8817 39.8991L60.7365 39.3609L60.2745 38.8484L59.8125 38.3359L59.3125 38.1083L58.8125 37.8805L58.1522 37.8778L57.492 37.875L57.0272 38.0686L56.5625 38.2623L56.125 38.6885L55.6875 39.1148V38.4011V37.6875L55.4264 37.1875L55.1652 36.6875L54.6425 36.3183L54.1199 35.949L53.3411 35.9101L52.5625 35.8713L52.1875 36.0459ZM20.0857 37.7744L19.6089 38.5375L19.7732 38.6933L19.9375 38.8489L20.6425 39.2411L21.3475 39.6334L21.801 38.8084L22.2545 37.9834L22.1897 37.8786L22.125 37.7739L21.4394 37.3869L20.7537 37L20.6581 37.0056L20.5625 37.0113L20.0857 37.7744ZM39.5941 37.922L38.8757 38.3125L38.8754 38.389L38.875 38.4654L39.2506 39.2939L39.6262 40.1224L40.5544 39.6631L41.4825 39.2039L41.285 38.8206L41.0874 38.4375L40.7921 37.9688L40.4969 37.5L40.4046 37.5158L40.3125 37.5316L39.5941 37.922ZM9.21699 38.0313L9.33974 38.1875L9.68861 39.625L10.0375 41.0625L10.9012 42.7946L11.765 44.5266L11.7097 44.5819L11.6545 44.6371L11.3251 44.5545L10.9956 44.4718L10.5096 43.9546L10.0235 43.4375L9.46836 42.7799L8.91311 42.1221L8.59599 40.2174L8.27874 38.3125L8.39374 38.0938L8.50874 37.875H8.80161H9.09436L9.21699 38.0313ZM53.6219 38.0588L53.7745 38.2426L53.4465 40.1928L53.1185 42.143L52.1636 43.2539L51.2087 44.3649L50.8357 44.495L50.4627 44.625H50.3555H50.2484L51.1054 42.9063L51.9625 41.1875L52.3114 39.75L52.6604 38.3125L52.772 38.0938L52.8837 37.875H53.1766H53.4694L53.6219 38.0588ZM23.6919 39.4885L23.375 40.3178V40.4486V40.5794L24.2429 40.864L25.1109 41.1485L25.223 41.0791L25.3352 41.0099L25.558 40.187L25.7807 39.364L25.7324 39.3156L25.6839 39.2673L24.8464 38.9633L24.0087 38.6593L23.6919 39.4885ZM36.125 39.2805L35.3125 39.525L35.2705 39.565L35.2285 39.6049L35.4366 40.5403L35.6446 41.4756L36.6036 41.2194L37.5625 40.963L37.6066 40.927L37.6507 40.891L37.3724 40.0393L37.094 39.1875L37.0157 39.1118L36.9375 39.036L36.125 39.2805ZM27.5006 40.621L27.3485 41.5235L27.4582 41.6333L27.568 41.743L28.4526 41.8251L29.3372 41.9074L29.4186 41.5006L29.5 41.0938V40.4844V39.875L29.2187 39.8739L28.9375 39.8729L28.2952 39.7956L27.6529 39.7185L27.5006 40.621ZM31.9687 39.966L31.5 40.0151V41.0223V42.0294L32.4687 41.941L33.4375 41.8528L33.5067 41.7701L33.576 41.6875L33.4636 40.7813L33.3512 39.875L32.8944 39.896L32.4375 39.917L31.9687 39.966Z" fill="#896442"/>
</svg>
