<svg width="64" height="60" viewBox="0 0 64 60" fill="none" xmlns="http://www.w3.org/2000/svg">
<path fill-rule="evenodd" clip-rule="evenodd" d="M30.3125 0.233975L29.9375 0.3316L29.6562 0.482725L29.375 0.633725L29.1597 0.96235L28.9445 1.29085L28.8785 1.85197L28.8125 2.4131L27.8351 2.64322L26.8579 2.87335L25.9601 3.32247L25.0625 3.77147L24.385 4.29197L23.7076 4.81247L23.0995 5.54285L22.4914 6.27322L22.0532 7.14348L21.615 8.0136L21.331 9.0836L21.0469 10.1536L20.5847 10.3125L20.1226 10.4713L19.9165 10.6418L19.7104 10.8125L19.4829 11.3125L19.2555 11.8125L19.2528 13.1924L19.25 14.5721L19.4963 15.0551L19.7425 15.5381L19.3526 15.9821L18.9627 16.4261L18.6376 17.1192L18.3125 17.8125V19.0651V20.3177L18.7218 21.1491L19.131 21.9804L19.8123 22.603L20.4935 23.2256L21.278 23.5247L22.0625 23.8239L22.1381 25.0056L22.2138 26.1875L22.4419 26.75L22.67 27.3125L22.9571 27.7742L23.2442 28.2358L23.7035 28.6952L24.1629 29.1545L24.7245 29.5107L25.2862 29.867L25.8619 30.0481L26.4375 30.2292L26.9062 30.3077L27.375 30.3864V31.7973V33.2085L24.4062 34.4347L21.4375 35.6611L20.6949 36.0318L19.9524 36.4026L19.24 37.115L18.5276 37.8273L18.1425 38.5903L17.7574 39.3533L17.429 40.6638L17.1006 41.9742L15.769 41.4148L14.4375 40.8553L14.0312 40.6841L13.625 40.5127V39.6938V38.875H13.9175H14.2101L14.9696 38.4955L15.7291 38.1158L16.1914 37.6042L16.6537 37.0925L16.9831 36.39L17.3125 35.6875L17.3538 32.7905L17.3949 29.8936L17.8931 29.8094L18.3914 29.7252L18.8022 29.3145L19.213 28.9036L19.294 28.4987L19.375 28.0937V27.0863V26.0788L19.1195 25.5511L18.864 25.0232L18.433 24.8187L18.0021 24.6142L17.93 24.2759L17.858 23.9375L17.6175 23.2726L17.3769 22.6077L16.9261 21.9287L16.4755 21.2496L15.9307 20.7702L15.3861 20.2907L14.6477 19.8972L13.9094 19.5036L13.2382 19.3319L12.5671 19.1601L12.4859 18.7625L12.4045 18.3647L12.171 18.1026L11.9375 17.8405L11.5352 17.6702L11.133 17.5H10.1446H9.15625L8.75813 17.5796L8.36 17.6592L7.99725 18.022L7.6345 18.3847L7.556 18.8031L7.4775 19.2216L6.98912 19.2997L6.50075 19.3778L5.82338 19.6774L5.14612 19.9769L5.01062 20.2302L4.875 20.4836V20.8042V21.125L5.125 21.375L5.375 21.625H5.73637H6.09775L6.64262 21.3777L7.1875 21.1305L7.34375 21.1277L7.5 21.125V22.875V24.625H5.76237H4.02475L4.03725 24.1846L4.04975 23.7441L3.78175 23.4762L3.51388 23.2084H3.1125H2.711L2.4845 23.4881L2.258 23.7679L2.18275 24.1688L2.1075 24.5699L1.6475 24.8162L1.1875 25.0625L0.969 25.5L0.750375 25.9375L0.75025 27.225L0.75 28.5124L0.935 28.8701L1.12 29.2278L1.45375 29.4905L1.78762 29.753L2.26075 29.8287L2.73388 29.9044L2.77325 32.8585L2.8125 35.8125L3.08262 36.397L3.35275 36.9813L3.89512 37.572L4.4375 38.1626L5.1875 38.5187L5.9375 38.8747L6.2245 38.8748L6.51137 38.875L6.4745 39.7075L6.4375 40.54L3.39313 41.8055L0.348625 43.071L0.174375 43.3093L0 43.5477V51.3753V59.2028L0.254875 59.4763L0.50975 59.75H0.9375H1.36525L1.62013 59.4763L1.875 59.2028V57.1638V55.125H5.5H9.125V57.1875V59.25L9.375 59.5L9.625 59.75H10.0534H10.4819L10.7409 59.4206L11 59.0912V57.1081V55.125H12.375H13.75L13.7517 55.2187L13.7534 55.3125L13.284 57.1485L12.8146 58.9845L13.076 59.336L13.3374 59.6875L13.7865 59.7258L14.2358 59.7642L14.4616 59.5333L14.6875 59.3023L17.1234 49.5887L19.5594 39.875H19.6361H19.713L20.0923 40.7187L20.4715 41.5625L20.5728 41.875L20.6741 42.1875L20.7432 50.7057L20.8125 59.224L21.0506 59.487L21.2887 59.75H21.75H22.2113L22.4159 59.5238L22.6205 59.2978L22.654 56.2426L22.6875 53.1875H26.875H31.0625L31.096 56.2426L31.1295 59.2978L31.3341 59.5238L31.5387 59.75H32H32.4613L32.6659 59.5238L32.8705 59.2978L32.904 56.2426L32.9375 53.1875H37.125H41.3125L41.346 56.2426L41.3795 59.2978L41.5841 59.5238L41.7887 59.75H42.25H42.7113L42.9494 59.487L43.1875 59.224L43.2567 50.7057L43.3259 42.1875L43.4272 41.875L43.5285 41.5625L43.9077 40.7187L44.287 39.875H44.363H44.439L46.8758 49.5887L49.3125 59.3023L49.5384 59.5333L49.7643 59.7642L50.2135 59.7258L50.6626 59.6875L50.9224 59.3381L51.1821 58.9887L50.7115 57.1506L50.2407 55.3125L50.2454 55.2187L50.25 55.125H51.625H53V57.1081V59.0912L53.2591 59.4206L53.5181 59.75H53.9466H54.375L54.625 59.5L54.875 59.25V57.1875V55.125H58.5H62.125V57.1638V59.2028L62.3799 59.4763L62.6348 59.75H63.0625H63.4902L63.7451 59.4763L64 59.2028V51.3652V43.5277L63.7812 43.2708L63.5625 43.014L60.5625 41.7755L57.5625 40.537L57.5255 39.706L57.4886 38.875L57.7755 38.8748L58.0625 38.8747L58.8125 38.5187L59.5625 38.1626L60.1049 37.572L60.6473 36.9813L60.9174 36.397L61.1875 35.8125L61.2267 32.8585L61.2661 29.9044L61.7622 29.825L62.2584 29.7457L62.7229 29.3202L63.1875 28.8948L63.224 27.4161L63.2604 25.9375L63.0365 25.5L62.8125 25.0625L62.3499 24.8147L61.8871 24.567L61.8089 24.1033L61.7305 23.6399L61.3003 22.742L60.87 21.8441L60.0288 21.0047L59.1875 20.1653L58.3685 19.7756L57.5495 19.3859L57.0376 19.304L56.5256 19.2221L56.459 18.889L56.3924 18.5559L56.1128 18.2002L55.833 17.8447L55.4205 17.6723L55.008 17.5H53.9375H52.867L52.4647 17.6702L52.0625 17.8405L51.829 18.1026L51.5955 18.3647L51.5141 18.7625L51.4329 19.1601L50.7617 19.3319L50.0906 19.5036L49.389 19.8782L48.6875 20.2527L48.1069 20.7498L47.5264 21.2469L47.0747 21.9274L46.6231 22.6077L46.3825 23.2726L46.142 23.9375L46.07 24.2759L45.9979 24.6142L45.567 24.8187L45.136 25.0232L44.8805 25.5511L44.625 26.0788L44.6258 27.1332L44.6264 28.1875L44.7544 28.6482L44.8824 29.1089L45.2634 29.4295L45.6444 29.7501L46.1247 29.827L46.6051 29.9037L46.6464 32.7956L46.6875 35.6875L47.0169 36.39L47.3462 37.0925L47.8086 37.6042L48.2709 38.1158L49.0304 38.4955L49.7899 38.875H50.0825H50.375V39.6801V40.4852L50.2542 40.5598L50.1336 40.6345L48.5168 41.3055L46.9 41.9766L46.569 40.6557L46.238 39.3347L45.9002 38.639L45.5625 37.9431L44.8125 37.1766L44.0625 36.41L43.3839 36.0666L42.7052 35.7231L42.2513 35.563L41.7972 35.4027L41.403 35.5685L41.0088 35.7342L40.9282 36.0546L40.8479 36.375L40.9286 36.6967L41.0094 37.0185L41.9134 37.4305L42.8174 37.8424L42.9829 38.0417L43.1483 38.2412L42.8838 38.6126L42.6194 38.9841L42.25 39.7732L41.8807 40.5625L41.6279 41.5512L41.375 42.54V43.9575V45.375H37.125H32.875V42.6008V39.8267L34.397 37.5071L35.9189 35.1875L36.0005 35.0902L36.0821 34.9928L36.9717 35.3715L37.8613 35.75H38.1239H38.3864L38.6931 35.4431L39 35.1363V34.846V34.5556L38.8174 34.2948L38.6348 34.0342L37.6299 33.6193L36.625 33.2045V31.8042V30.4041L36.9062 30.3287L37.1875 30.2534L37.4375 30.2487L37.6875 30.2441L38.4049 29.9491L39.1221 29.6541L39.7484 29.1765L40.3746 28.6989L40.854 28.0057L41.3335 27.3125L41.5599 26.75L41.7863 26.1875L41.8619 25.0056L41.9375 23.8239L42.722 23.5247L43.5065 23.2256L44.1878 22.603L44.869 21.9804L45.2783 21.1491L45.6875 20.3177V19.0651V17.8125L45.3624 17.1192L45.0373 16.4261L44.6474 15.9821L44.2575 15.5381L44.5037 15.0551L44.75 14.5721L44.7472 13.1924L44.7445 11.8125L44.5171 11.3125L44.2896 10.8125L44.0835 10.6418L43.8774 10.4713L43.4152 10.3125L42.9531 10.1536L42.6684 9.08122L42.3838 8.00897L42.052 7.34823L41.7201 6.68747L41.162 5.90022L40.6039 5.11297L39.7863 4.43872L38.9688 3.76435L38.078 3.32422L37.1872 2.8841L36.1874 2.6486L35.1875 2.4131L35.1215 1.85197L35.0555 1.29085L34.8391 0.960475L34.6226 0.630225L34.2176 0.4161L33.8125 0.201975L32.25 0.169225L30.6875 0.136475L30.3125 0.233975ZM33.25 6.06247V10.125H32H30.75V6.06247V1.99997H32H33.25V6.06247ZM28.875 7.24997V10.125H25.9375H23V10.0131V9.90135L23.2488 9.10685L23.4974 8.31248L23.8774 7.6541L24.2575 6.99573L24.9969 7.49785L25.7362 7.99997H26.0014H26.2664L26.4911 7.87972L26.7157 7.75947L26.8681 7.3916L27.0205 7.02385L26.8476 6.69385L26.6747 6.36385L26.1365 6.0076L25.5982 5.65122L26.1914 5.3036L26.7845 4.95597L27.5485 4.67197L28.3125 4.38797L28.5938 4.38147L28.875 4.37497V7.24997ZM36.4155 4.6661L37.2174 4.9571L37.8096 5.30422L38.4017 5.65122L37.8635 6.0076L37.3252 6.36385L37.1524 6.69385L36.9795 7.02385L37.1319 7.3916L37.2842 7.75947L37.5089 7.87972L37.7336 7.99997H37.9986H38.2637L39.0031 7.49785L39.7425 6.99573L40.1226 7.6541L40.5026 8.31248L40.7513 9.10685L41 9.90135V10.0131V10.125H38.0625H35.125V7.24997V4.37497H35.3694H35.6136L36.4155 4.6661ZM42.875 13.125V14.25H32H21.125V13.125V12H32H42.875V13.125ZM39.9743 21.0312L39.9375 25.9375L39.6669 26.4375L39.3961 26.9375L38.9169 27.393L38.4375 27.8485L37.875 28.143L37.3125 28.4375H32H26.6875L26.0625 28.1045L25.4375 27.7716L24.9756 27.292L24.5136 26.8125L24.2596 26.25L24.0055 25.6875L24.0028 20.9062L24 16.125H32.0055H40.0109L39.9743 21.0312ZM22.125 19.0625V21.75H21.956H21.787L21.3669 21.4669L20.9468 21.1837L20.5671 20.6436L20.1875 20.1035V19.1455V18.1875L20.4485 17.6875L20.7095 17.1875L21.2395 16.7812L21.7694 16.375H21.9473H22.125V19.0625ZM42.7605 16.7812L43.2905 17.1875L43.5452 17.6809L43.8001 18.1744L43.8526 18.9L43.9051 19.6256L43.7451 20.0315L43.585 20.4375L43.278 20.8544L42.971 21.2712L42.5793 21.5101L42.1875 21.7491L42.0312 21.7495L41.875 21.75V19.0625V16.375H42.0527H42.2306L42.7605 16.7812ZM31.3319 17.4786L31.125 17.7071V19.657V21.6068L31.4634 21.873L31.8016 22.1391L32.1196 22.0599L32.4375 21.9805L32.6562 21.7833L32.875 21.5862V19.625V17.6637L32.6464 17.4569L32.4179 17.25H31.9783H31.5387L31.3319 17.4786ZM10.625 22V24.625H10H9.375V22V19.375H10H10.625V22ZM54.625 22V24.625H54H53.375V22V19.375H54H54.625V22ZM13.9817 21.6591L14.6538 22.0625L15.0723 22.5696L15.4906 23.0769L15.7426 23.6321L15.9945 24.1875L15.9972 24.4097L16 24.632L14.2812 24.5972L12.5625 24.5625L12.5276 22.8274L12.4928 21.0922L12.9012 21.174L13.3097 21.2557L13.9817 21.6591ZM51.4723 22.8437L51.4375 24.5625L49.7188 24.5972L48 24.632L48.0013 24.4097L48.0025 24.1875L48.3059 23.5359L48.6092 22.8841L49.1507 22.3426L49.6922 21.8011L50.3708 21.463L51.0491 21.125H51.2781H51.507L51.4723 22.8437ZM57.5923 21.5033L58.3494 21.8816L58.8732 22.4501L59.3973 23.0186L59.6227 23.5405L59.8483 24.0625L59.9325 24.3437L60.0169 24.625H58.2584H56.5V22.875V21.125H56.6675H56.8351L57.5923 21.5033ZM29.3294 23.3841L29 23.6431V24.0618V24.4806L29.4062 25.0087L29.8125 25.5368L30.493 25.9192L31.1734 26.3015H32H32.8266L33.507 25.9192L34.1875 25.5368L34.5938 25.0087L35 24.4806V24.0618V23.6431L34.6706 23.3841L34.3413 23.125H34.0999H33.8586L33.631 23.2467L33.4035 23.3685L33.1516 23.7955L32.8996 24.2225L32.4499 24.3708L32 24.5194L31.5501 24.3708L31.1004 24.2225L30.8484 23.7955L30.5965 23.3685L30.369 23.2467L30.1414 23.125H29.9001H29.6588L29.3294 23.3841ZM17.475 27.2187L17.4375 27.9375L10.0312 27.9697L2.625 28.002V27.251V26.5H10.0688H17.5125L17.475 27.2187ZM61.375 27.251V28.002L53.9688 27.9697L46.5625 27.9375L46.525 27.2187L46.4875 26.5H53.9313H61.375V27.251ZM9.125 30.6875V31.5L9.375 31.75L9.625 32H10.0534H10.4819L10.7409 31.6706L11 31.3412V30.6081V29.875H13.2586H15.5171L15.4774 32.6771L15.4375 35.4792L15.0625 36.0097L14.6875 36.5402L14.1875 36.8013L13.6875 37.0625L10.2904 37.101L6.89337 37.1396L6.38987 37.004L5.88637 36.8683L5.50025 36.5435L5.114 36.2185L4.8695 35.7392L4.625 35.26V32.5675V29.875H6.875H9.125V30.6875ZM53 30.6081V31.3412L53.2591 31.6706L53.5181 32H53.9466H54.375L54.625 31.75L54.875 31.5V30.6875V29.875H57.125H59.375V32.5675V35.26L59.1305 35.7392L58.886 36.2185L58.4997 36.5435L58.1136 36.8683L57.6101 37.004L57.1066 37.1396L53.7096 37.101L50.3125 37.0625L49.8125 36.8013L49.3125 36.5402L48.9375 36.0097L48.5625 35.4792L48.5226 32.6771L48.4829 29.875H50.7414H53V30.6081ZM34.75 31.625V32.875H32H29.25V31.625V30.375H32H34.75V31.625ZM8.1875 33.0193L7.9375 33.1561L7.78125 33.3518L7.625 33.5477V33.8985V34.2492L8.08438 34.7577L8.54375 35.2661L8.88375 35.442L9.22375 35.6178L9.71087 35.6957L10.198 35.7736L10.7311 35.6301L11.2641 35.4865L11.7501 35.0475L12.236 34.6085L12.3757 34.1853L12.5154 33.7622L12.3783 33.5061L12.2413 33.25L11.9392 33.0521L11.6372 32.8542L11.3499 32.9396L11.0625 33.0251L10.6626 33.45L10.2627 33.875H10.0155H9.76812L9.49862 33.5312L9.229 33.1875L8.95825 33.0356L8.6875 32.8839L8.5625 32.8832L8.4375 32.8826L8.1875 33.0193ZM51.9707 33.1212L51.6398 33.3815L51.5667 33.6117L51.4936 33.842L51.6295 34.2022L51.7654 34.5625L52.1545 34.966L52.5436 35.3693L53.1554 35.5726L53.7673 35.7757L54.3039 35.6953L54.8406 35.6148L55.3276 35.299L55.8148 34.9832L56.0949 34.5558L56.375 34.1285V33.887V33.6455L56.2974 33.4431L56.2197 33.2407L55.847 33.048L55.4744 32.8552L55.1299 32.998L54.7855 33.1406L54.514 33.5078L54.2425 33.875H53.9899H53.7373L53.3374 33.4447L52.9375 33.0143L52.6196 32.9376L52.3016 32.8608L51.9707 33.1212ZM33.875 34.8383V34.9266L32.9829 36.2758L32.0909 37.625H32H31.9091L31.0171 36.2758L30.125 34.9266V34.8383V34.75H32H33.875V34.8383ZM29.5344 37.4166L31.125 39.8332V42.6041V45.375H26.875H22.625V43.9575V42.54L22.3721 41.5512L22.1192 40.5625L21.75 39.7732L21.3806 38.9841L21.1114 38.6057L20.842 38.2275L21.0772 37.9927L21.3125 37.7581L24.5625 36.3891L27.8125 35.0201L27.8781 35.0101L27.9438 35L29.5344 37.4166ZM11.7256 39.5937L11.6875 40.1875L10.0312 40.2223L8.375 40.2572V39.6286V39H10.0694H11.7638L11.7256 39.5937ZM55.625 39.6286V40.2572L53.9688 40.2223L52.3125 40.1875L52.2744 39.5937L52.2363 39H53.9306H55.625V39.6286ZM10.6119 43.1562L10.096 44.1875L10.0642 44.2232L10.0326 44.2591L9.51625 43.2667L9 42.2743V42.1996V42.125H10.0639H11.1278L10.6119 43.1562ZM55 42.1996V42.2743L54.4837 43.2667L53.9674 44.2591L53.9357 44.2232L53.904 44.1875L53.3881 43.1562L52.8722 42.125H53.9361H55V42.1996ZM8.06175 44.4986L9.125 46.6222V47.8736V49.125H5.49725H1.8695L1.9035 46.7841L1.9375 44.4431L4.375 43.4177L6.8125 42.3923L6.9055 42.3836L6.99862 42.375L8.06175 44.4986ZM14.9105 43.0873L16.6334 43.8021L16.5625 44.1197L16.4916 44.4375L15.9021 46.75L15.3125 49.0625L13.1562 49.0967L11 49.1308V47.8163V46.502L12.0295 44.4385L13.059 42.375L13.1233 42.3738L13.1875 42.3727L14.9105 43.0873ZM51.9705 44.4385L53 46.502V47.8163V49.1308L50.8438 49.0967L48.6875 49.0625L48.022 46.4406L47.3565 43.8186L47.4595 43.7777L47.5625 43.7368L49.125 43.0688L50.6875 42.4008L50.8143 42.388L50.941 42.375L51.9705 44.4385ZM59.75 43.4747L62.0625 44.4493L62.0965 46.7871L62.1305 49.125H61.1994H60.2681L60.0091 49.4543L59.75 49.7837V50.0098V50.236L60.0474 50.5818L60.3449 50.9276L61.2349 50.9778L62.125 51.0282V52.1391V53.25H58.5H54.875V52.1415V51.0328L55.8348 50.9712L56.7946 50.9096L57.0223 50.6285L57.25 50.3472V49.9861V49.625L57 49.375L56.75 49.125H55.8125H54.875V47.8736V46.6222L55.9417 44.4915L57.0085 42.3608L57.223 42.4305L57.4375 42.5001L59.75 43.4747ZM31.0969 49.2812L31.1314 51.25H26.8781H22.625V49.3333V47.4166L22.71 47.3316L22.795 47.2466L26.9287 47.2796L31.0625 47.3125L31.0969 49.2812ZM41.3469 49.2812L41.3814 51.25H37.1281H32.875V49.3333V47.4166L32.96 47.3316L33.045 47.2466L37.1787 47.2796L41.3125 47.3125L41.3469 49.2812ZM9.125 52.125V53.25H5.5H1.875V52.125V51H5.5H9.125V52.125ZM14.5719 52.0937L14.2971 53.1875L12.6485 53.2223L11 53.2572V52.1286V51H12.9233H14.8466L14.5719 52.0937ZM53 52.1286V53.2572L51.3515 53.2223L49.7029 53.1875L49.4281 52.0937L49.1534 51H51.0768H53V52.1286Z" fill="#896442"/>
</svg>
