<svg width="54" height="65" viewBox="0 0 54 65" fill="none" xmlns="http://www.w3.org/2000/svg">
<path fill-rule="evenodd" clip-rule="evenodd" d="M18.5625 0.237493L18.0625 0.469493L17.6639 0.890993L17.2654 1.31249L17.1326 1.66437L17 2.01624V4.49999V6.98374L17.1166 7.29049L17.2333 7.59724L17.6468 8.06824L18.0604 8.53924L18.5614 8.76687L19.0625 8.99449L19.5313 8.99724L20 8.99999V10.1022V11.2044L18.3889 11.7359L16.7778 12.2674L15.2054 13.0465L13.633 13.8255L12.5353 12.7187L11.4375 11.612L11.0625 11.378L10.6875 11.1439L10.1048 10.9974L9.52201 10.8509L8.79814 11.0612L8.07426 11.2717L6.22514 13.0952L4.37614 14.9187L4.12551 15.4364L3.87501 15.9539L3.87776 16.6332L3.88051 17.3125L4.11389 17.8125L4.34726 18.3125L5.23614 19.1841L6.12501 20.0557V20.1522V20.2486L5.38501 21.2466L4.64501 22.2447L4.02389 23.2786L3.40289 24.3125L2.90714 25.3125L2.41151 26.3125L1.95976 27.5L1.50801 28.6875L1.19689 29.7765L0.885886 30.8655L0.636886 32.1559L0.387886 33.4462L0.243136 35.1294L0.0985107 36.8125L0.181011 38.25L0.263386 39.6875L0.450011 41L0.636511 42.3125L0.998386 43.767L1.36026 45.2216L1.82101 46.4545L2.28164 47.6875L2.81926 48.8125L3.35676 49.9375L4.00214 51L4.64751 52.0625L5.53576 53.25L6.42401 54.4375L7.68076 55.7326L8.93751 57.0277L9.89801 57.8302L10.8585 58.6327L12.2529 59.5644L13.6473 60.496L15.1674 61.2436L16.6875 61.9914L18.4029 62.5634L20.1184 63.1354L21.5431 63.4309L22.9679 63.7264L24.6401 63.8812L26.3125 64.0361L28.0625 63.9596L29.8125 63.8832L31.3125 63.6266L32.8125 63.37L33.9603 63.0652L35.108 62.7605L36.3353 62.304L37.5625 61.8476L39.0625 61.1017L40.5625 60.3559L41.7981 59.5349L43.0339 58.714L44.1106 57.813L45.1875 56.912L46.386 55.6711L47.5845 54.4302L48.4568 53.2464L49.329 52.0625L49.9088 51.1239L50.4884 50.1851L51.231 48.6239L51.9736 47.0625L52.3076 46.1256L52.6418 45.1886L52.9481 44.0094L53.2545 42.8301L53.1178 42.4154L52.9809 42.0007L52.7126 41.8129L52.4444 41.625H51.9315H51.4186L51.1329 41.9291L50.8471 42.2332L50.4898 43.5154L50.1324 44.7975L49.692 45.9341L49.2516 47.0707L48.6776 48.1862L48.1036 49.3017L47.5359 50.1821L46.968 51.0625L46.1438 52.125L45.3194 53.1875L44.1264 54.3755L42.9334 55.5636L41.7479 56.453L40.5625 57.3422L39.6875 57.8795L38.8125 58.4166L37.3125 59.1311L35.8125 59.8457L34.6754 60.2247L33.5381 60.6039L32.1129 60.9212L30.6875 61.2387L29.393 61.3694L28.0985 61.5H27H25.9015L24.607 61.369L23.3125 61.2381L22.0701 60.9869L20.8278 60.7356L19.3389 60.2379L17.8499 59.7401L16.7063 59.2044L15.5625 58.6686L14.5625 58.0645L13.5625 57.4604L12.4016 56.5929L11.2406 55.7255L10.1874 54.7284L9.13414 53.7314L8.20614 52.5844L7.27826 51.4375L6.56751 50.342L5.85689 49.2464L5.19226 47.9045L4.52751 46.5625L4.14464 45.5L3.76164 44.4375L3.50826 43.5L3.25489 42.5625L3.06476 41.5625L2.87451 40.5625L2.73226 38.8686L2.59014 37.1747L2.72751 35.4936L2.86501 33.8125L3.12926 32.4444L3.39351 31.0761L3.88601 29.5694L4.37851 28.0625L5.11401 26.5625L5.84939 25.0625L6.63014 23.875L7.41076 22.6875L8.12989 21.8125L8.84901 20.9375L10.0298 19.7706L11.2105 18.6037L12.4079 17.7066L13.6051 16.8095L14.6464 16.1897L15.6875 15.57L17 14.9882L18.3125 14.4066L19.4923 14.012L20.6719 13.6174L22.1798 13.2966L23.6875 12.9759L26.3125 12.9109L28.9375 12.8459L30.375 13.0552L31.8125 13.2647L33 13.5654L34.1875 13.866L35.0625 14.1684L35.9375 14.4706L36.9375 14.9145L37.9375 15.3584L38.8125 15.8416L39.6875 16.3249L40.5625 16.9057L41.4375 17.4865L42.4375 18.2906L43.4375 19.0946L44.5034 20.2035L45.5693 21.3125L46.3273 22.3125L47.0851 23.3125L47.8491 24.5796L48.613 25.8467L49.1701 27.0864L49.7273 28.3261L50.1704 29.7567L50.6134 31.1875L50.7505 31.7245L50.8878 32.2614L51.2876 32.5116L51.6875 32.762L52.1093 32.6989L52.531 32.6356L52.7541 32.4337L52.9771 32.2319L53.121 31.8846L53.2649 31.5374L53.009 30.5354L52.7533 29.5334L52.3018 28.2355L51.8504 26.9375L51.2601 25.6875L50.6699 24.4375L49.962 23.2774L49.2541 22.1172L48.5645 21.1849L47.875 20.2524V20.1541V20.0557L48.7639 19.1841L49.6528 18.3125L49.8861 17.8125L50.1195 17.3125L50.1223 16.6332L50.125 15.9539L49.8745 15.4364L49.6239 14.9187L47.777 13.0974L45.9301 11.2761L45.2549 11.0755L44.5796 10.875H44.4375H44.2954L43.6279 11.0732L42.9605 11.2714L41.6304 12.5684L40.3004 13.8654L39.869 13.6022L39.4375 13.339L38.1875 12.7711L36.9375 12.2034L35.5625 11.7361L34.1875 11.2689L34.1515 10.1345L34.1156 8.99999L34.5265 8.99724L34.9375 8.99449L35.4386 8.76687L35.9396 8.53924L36.3533 8.06824L36.7668 7.59724L36.8834 7.29049L37 6.98374V4.49999V2.01624L36.8834 1.70949L36.7668 1.40274L36.3533 0.931743L35.9396 0.460743L35.4386 0.233118L34.9375 0.00549316H27H19.0625L18.5625 0.237493ZM34.5 4.49999V6.49999H27H19.5V4.49999V2.49999H27H34.5V4.49999ZM31.5995 9.84374L31.5625 10.6875L31.4375 10.6669L31.3125 10.6462L30.0058 10.4945L28.6991 10.3427L26.1308 10.4244L23.5625 10.506L22.9688 10.5781L22.375 10.6501V9.82512V8.99999H27.0058H31.6364L31.5995 9.84374ZM10.726 14.408L11.5146 15.209L10.851 15.711L10.1875 16.213L9.01839 17.2461L7.84914 18.2791L7.11214 17.5497L6.37501 16.8204V16.6225V16.4247L7.92739 14.89L9.47964 13.3554L9.70864 13.4812L9.93751 13.6071L10.726 14.408ZM46.0826 14.8999L47.625 16.4247V16.6225V16.8204L46.8865 17.5511L46.148 18.2819L45.1053 17.3579L44.0625 16.4339L43.271 15.8155L42.4796 15.1971L43.4115 14.286L44.3435 13.375H44.4419H44.5403L46.0826 14.8999ZM24.4375 15.9539L24.0625 16.01L22.7536 16.2684L21.4449 16.5269L20.3161 16.9045L19.1875 17.2821L17.8794 17.895L16.5714 18.5079L15.1919 19.431L13.8125 20.354L12.8411 21.2269L11.8698 22.0997L11.0893 22.9701L10.3089 23.8405L9.53564 24.9275L8.76251 26.0144L8.00539 27.4995L7.24826 28.9845L6.80964 30.2952L6.37101 31.606L6.12589 32.7717L5.88076 33.9375L5.73414 35.5312L5.58751 37.125L5.73814 38.7812L5.88889 40.4375L6.14514 41.625L6.40151 42.8125L6.77414 43.9375L7.14689 45.0625L7.81276 46.4375L8.47851 47.8125L9.22464 48.9375L9.97076 50.0625L10.9254 51.1537L11.8799 52.2451L12.9653 53.194L14.0506 54.1429L15.119 54.8569L16.1875 55.5709L17.4375 56.212L18.6875 56.8532L20.1875 57.3519L21.6875 57.8505L22.6875 58.0486L23.6875 58.2469L24.8125 58.3724L25.9375 58.498L26.9736 58.499L28.0099 58.5L29.2236 58.3666L30.4375 58.2332L31.6135 57.9805L32.7895 57.7279L34.051 57.2906L35.3125 56.8535L36.75 56.1105L38.1875 55.3675L39.3125 54.5616L40.4375 53.7557L41.4094 52.8667L42.3813 51.9777L43.2388 50.9576L44.0964 49.9375L44.8099 48.875L45.5234 47.8125L46.1855 46.4375L46.8478 45.0625L47.2248 43.9286L47.6018 42.7946L47.8564 41.6161L48.1111 40.4375L48.2619 38.7812L48.4125 37.125L48.2659 35.5312L48.1193 33.9375L47.8741 32.7717L47.629 31.606L47.186 30.2822L46.743 28.9585L45.9333 27.3855L45.1235 25.8125L44.1451 24.5L43.1669 23.1875L42.1404 22.1587L41.114 21.13L40.0883 20.331L39.0625 19.5321L38.1875 18.9957L37.3125 18.4594L36.0625 17.8649L34.8125 17.2705L33.6576 16.8881L32.5029 16.5057L31.2826 16.2411L30.0625 15.9766L27.4375 15.9371L24.8125 15.8976L24.4375 15.9539ZM29.9965 18.568L31.1804 18.76L32.184 19.0539L33.1875 19.3477L33.874 19.6215L34.5605 19.8952L35.4365 20.3324L36.3125 20.7696L36.9375 21.1609L37.5625 21.5521L38.5 22.2617L39.4375 22.9714L40.4445 24.017L41.4515 25.0625L42.0236 25.8154L42.5959 26.5681L43.1823 27.534L43.7686 28.4999L44.2664 29.6476L44.7643 30.7952L45.0661 31.8369L45.3679 32.8785L45.5785 34.033L45.7891 35.1875L45.7926 37.125L45.7963 39.0625L45.576 40.3125L45.3556 41.5625L44.8674 43.0379L44.3791 44.5134L43.735 45.7672L43.0909 47.0212L42.4055 47.9794L41.72 48.9375L40.9163 49.8381L40.1125 50.7389L39.15 51.5404L38.1875 52.3417L37.2655 52.9372L36.3434 53.5326L35.2326 54.0845L34.1218 54.6365L32.8421 55.0532L31.5625 55.4701L30.3125 55.7037L29.0625 55.9375L26.9375 55.9322L24.8125 55.927L23.6875 55.7084L22.5625 55.4899L21.349 55.1179L20.1356 54.746L18.6581 54.0065L17.1808 53.2669L16.0629 52.4772L14.945 51.6875L13.6913 50.432L12.4375 49.1765L11.711 48.1572L10.9846 47.138L10.309 45.8444L9.63339 44.5507L9.13889 43.0566L8.64439 41.5625L8.45151 40.375L8.25864 39.1875L8.17689 38.1209L8.09501 37.0542L8.24476 35.502L8.39451 33.9496L8.74476 32.5625L9.09514 31.1754L9.61464 29.9315L10.1341 28.6875L10.6499 27.8125L11.1656 26.9375L11.7333 26.1359L12.301 25.3342L13.3681 24.2129L14.4354 23.0915L15.4364 22.3199L16.4375 21.5484L17.0625 21.16L17.6875 20.7715L18.6875 20.2745L19.6875 19.7774L20.5865 19.4565L21.4855 19.1356L22.274 18.9286L23.0625 18.7217L24 18.5612L24.9375 18.4006L26.875 18.3884L28.8125 18.376L29.9965 18.568ZM26.3888 21.0495L26.09 21.215L25.9245 21.5137L25.7589 21.8125L25.7544 22.475L25.75 23.1374L25.9388 23.5025L26.1276 23.8676L26.3681 23.9962L26.6086 24.125H27H27.3914L27.6319 23.9962L27.8724 23.8676L28.0613 23.5025L28.25 23.1374V22.5121V21.8867L28.1006 21.559L27.9514 21.2312L27.6069 21.0531L27.2624 20.875L26.975 20.8794L26.6875 20.8839L26.3888 21.0495ZM15.7531 25.469L15.3188 25.6875L15.1444 26.151L14.97 26.6145L15.2148 27.0885L15.4595 27.5625L16.0055 27.9809L16.5514 28.3994L16.9811 28.3296L17.4109 28.2599L17.7035 27.985L17.9961 27.71L18.0716 27.3077L18.1471 26.9054L17.9598 26.5464L17.7724 26.1875L17.4174 25.8517L17.0625 25.5159L16.7106 25.383L16.3588 25.25L16.2731 25.2502L16.1875 25.2504L15.7531 25.469ZM37.1875 25.4466L36.8125 25.6416L36.5194 25.9145L36.2263 26.1875L36.0385 26.5485L35.8506 26.9096L35.9273 27.2925L36.0039 27.6755L36.2719 27.9609L36.54 28.2461L36.9423 28.3216L37.3446 28.3971L37.7236 28.2011L38.1025 28.0052L38.4795 27.5477L38.8566 27.0904L38.9304 26.7962L39.0043 26.5021L38.8191 26.059L38.634 25.616L38.196 25.433L37.758 25.25L37.6603 25.2507L37.5625 25.2515L37.1875 25.4466ZM26.3888 27.1745L26.09 27.34L25.9245 27.6387L25.7589 27.9375L25.7544 29.9409L25.75 31.9444L24.9644 32.2866L24.1788 32.6289L23.5581 33.1749L22.9375 33.7209L22.5365 34.3917L22.1356 35.0625L21.9428 35.8075L21.75 36.5525L21.7515 37.1825L21.753 37.8125L21.9244 38.4562L22.0958 39.1L22.4435 39.7389L22.7913 40.3777L23.4578 41.0081L24.1244 41.6385L24.8194 41.9567L25.5143 42.2749L26.3196 42.4129L27.125 42.5507L27.9484 42.4097L28.7718 42.2687L29.4796 41.9229L30.1875 41.5771L30.8489 40.9165L31.5104 40.256L31.9114 39.4092L32.3125 38.5625L32.3108 37.125L32.309 35.6875L31.9723 34.9649L31.6354 34.2422L30.9189 33.4912L30.2025 32.7401L29.4271 32.37L28.6518 32H28.4509H28.25V30.0059V28.0117L28.1006 27.684L27.9514 27.3562L27.6069 27.1781L27.2624 27L26.975 27.0044L26.6875 27.0089L26.3888 27.1745ZM28.3136 34.6081L28.8146 34.8357L29.2066 35.2821L29.5985 35.7285L29.7505 36.1891L29.9025 36.6497L29.8536 37.4189L29.8046 38.1881L29.4049 38.7691L29.0051 39.3501L28.353 39.675L27.7009 40H27.2088H26.7165L26.202 39.8472L25.6875 39.6944L25.1215 39.1285L24.5556 38.5625L24.4028 38.048L24.25 37.5335V37.0412V36.5491L24.5686 35.9097L24.8873 35.2704L25.3126 34.9459L25.7381 34.6214L26.0253 34.5061L26.3125 34.3909L27.0625 34.3856L27.8125 34.3805L28.3136 34.6081ZM52.0595 36.0495L51.6815 36.2142L51.5283 36.5505L51.375 36.8867V37.2655V37.6442L51.7404 38.0096L52.1058 38.375H52.4845H52.8633L53.1756 38.2326L53.488 38.0904L53.6815 37.6825L53.875 37.2747V37.1311V36.9876L53.6854 36.6209L53.4958 36.2542L53.1291 36.0646L52.7624 35.875L52.6 35.8799L52.4375 35.8847L52.0595 36.0495ZM11.2638 36.1745L10.965 36.34L10.7995 36.6387L10.6339 36.9375L10.6294 37.225L10.625 37.5124L10.8031 37.8569L10.9813 38.2014L11.309 38.3506L11.6368 38.5H12.2621H12.8874L13.2525 38.3112L13.6176 38.1224L13.7463 37.8819L13.875 37.6414V37.25V36.8586L13.7463 36.6181L13.6176 36.3776L13.2525 36.1887L12.8874 36L12.225 36.0044L11.5625 36.0089L11.2638 36.1745ZM40.7219 36.1949L40.3813 36.3797L40.2531 36.6191L40.125 36.8586V37.25V37.6414L40.2538 37.8819L40.3824 38.1224L40.7475 38.3112L41.1126 38.5H41.75H42.3874L42.7319 38.3219L43.0764 38.1437L43.2256 37.816L43.375 37.4882V37.25V37.0117L43.2256 36.684L43.0764 36.3562L42.7319 36.1781L42.3874 36L41.725 36.005L41.0625 36.01L40.7219 36.1949ZM16.0055 46.5191L15.4595 46.9375L15.2148 47.4115L14.97 47.8855L15.1438 48.349L15.3174 48.8125L15.7829 49.0412L16.2485 49.2699L16.6645 49.1326L17.0805 48.9952L17.4628 48.5914L17.845 48.1875L17.9965 47.8931L18.1479 47.5986L18.072 47.1944L17.9961 46.79L17.7035 46.515L17.4109 46.2401L16.9811 46.1704L16.5514 46.1006L16.0055 46.5191ZM36.75 46.2132L36.5625 46.2819L36.2831 46.5359L36.0039 46.79L35.9284 47.1922L35.8529 47.5946L36.0489 47.9736L36.2448 48.3525L36.7023 48.7295L37.1596 49.1066L37.4538 49.1804L37.7479 49.2542L38.191 49.0691L38.634 48.884L38.8225 48.4329L39.011 47.9816L38.9285 47.7096L38.846 47.4375L38.5335 47.0206L38.221 46.6037L37.8293 46.3649L37.4375 46.1259L37.1875 46.1354L36.9375 46.1447L36.75 46.2132ZM26.3438 50.51L26.125 50.6374L25.9375 51L25.75 51.3626V51.9879V52.6132L25.8994 52.941L26.0486 53.2687L26.3931 53.4469L26.7376 53.625H27H27.2624L27.6069 53.4469L27.9514 53.2687L28.1006 52.941L28.25 52.6132V51.9879V51.3626L28.0613 50.9975L27.8724 50.6324L27.6319 50.5037L27.3914 50.375L26.977 50.3787L26.5625 50.3826L26.3438 50.51Z" fill="#896442"/>
</svg>
