<svg width="64" height="65" viewBox="0 0 64 65" fill="none" xmlns="http://www.w3.org/2000/svg">
<path fill-rule="evenodd" clip-rule="evenodd" d="M11.0415 0.998795L10.3956 1.22967L9.9565 1.56454L9.51737 1.89942L9.25537 2.26754L8.99325 2.63554L8.78862 3.11154L8.584 3.58754L8.51075 4.46254L8.4375 5.33754L6.1875 5.40004L3.9375 5.46254L3.11725 5.85117L2.29713 6.23992L1.631 6.90604L0.964875 7.57217L0.576125 8.39229L0.1875 9.21255V27.0875V44.9625L0.583125 45.7975L0.978625 46.6324L1.49888 47.1968L2.01912 47.7613L2.60337 48.1322L3.1875 48.5029L3.8665 48.7015L4.54537 48.9H20.9086H37.272L37.2036 49.3688L37.1354 49.8375L37.0585 50.5923L36.9816 51.3469L37.1235 52.6359L37.2653 53.9248L37.5744 55.0062L37.8835 56.0875L38.3709 57.1133L38.8581 58.1389L39.3775 58.9038L39.8969 59.6685L40.718 60.539L41.5391 61.4094L42.3634 62.0289L43.1875 62.6483L44.0182 63.0867L44.849 63.525H45.1183H45.3874L45.7319 63.3469L46.0764 63.1688L46.2256 62.841L46.375 62.5133L46.3706 62.2379L46.3661 61.9625L46.2132 61.6874L46.0602 61.4123L45.0316 60.794L44.003 60.1758L43.3534 59.6319L42.7038 59.088L41.9695 58.164L41.2351 57.24L40.7537 56.2827L40.2724 55.3252L40.0153 54.4564L39.758 53.5875L39.6203 52.5359L39.4825 51.4843L39.5691 50.5359L39.6559 49.5875L39.8815 48.6963L40.1071 47.8052L40.6029 46.819L41.0986 45.8329L41.9244 44.7254L42.75 43.618V41.134V38.65H42.798H42.8459L45.1418 39.6625L47.4375 40.6752L48.25 40.5688L49.0625 40.4625L50.6875 40.4708L52.3125 40.479L53.2861 40.7529L54.2596 41.0269L55.0532 41.3868L55.8467 41.7465L56.6421 42.284L57.4375 42.8215L58.1955 43.5795L58.9535 44.3375L59.4922 45.1348L60.0311 45.932L60.4539 46.8472L60.8766 47.7622L61.1393 48.8624L61.402 49.9625L61.3426 51.7125L61.2832 53.4625L60.9396 54.525L60.5959 55.5875L60.2811 56.2125L59.9664 56.8375L59.5843 57.4L59.202 57.9625L58.7573 58.505L58.3125 59.0475L57.3932 59.7908L56.4741 60.5339L55.8462 60.8522L55.2184 61.1703L54.9217 61.4669L54.625 61.7637V62.2789V62.7943L54.9904 63.1597L55.3558 63.525H55.7746H56.1935L57.1531 62.9782L58.1126 62.4314L58.9214 61.7879L59.7301 61.1443L60.3866 60.4284L61.043 59.7125L61.7274 58.6652L62.4118 57.6179L62.8305 56.6249L63.2494 55.6319L63.518 54.6097L63.7868 53.5875L63.8449 51.775L63.903 49.9625L63.6946 48.8535L63.4863 47.7444L63.1214 46.7449L62.7566 45.7454L62.3056 44.9248L61.8545 44.1043L61.1764 43.203L60.4981 42.3019L59.6616 41.5194L58.825 40.7369L57.7749 40.0523L56.7248 39.3678L55.6898 38.9459L54.6548 38.5239L53.6711 38.286L52.6875 38.0483L51.9709 37.9654L51.2541 37.8825L51.2209 23.61L51.1875 9.33755L50.7874 8.49267L50.3871 7.64792L49.736 6.95942L49.0849 6.27092L48.2645 5.8668L47.4441 5.46254L45.1756 5.42155L42.9072 5.38067L42.8466 4.54655L42.786 3.71254L42.5015 3.05379L42.217 2.39504L41.5592 1.79379L40.9014 1.19254L40.1865 0.96767L39.4717 0.74292L38.7376 0.80942L38.0036 0.876045L37.4464 1.14567L36.8893 1.41542L36.4033 1.88704L35.9174 2.35867L35.6263 2.96004L35.3351 3.5613L35.2761 4.48067L35.2171 5.40004H32.3768H29.5362L29.4632 4.52904L29.3902 3.65804L29.1264 3.06029L28.8626 2.46254L28.4001 1.98304L27.9375 1.50342L27.3125 1.17292L26.6875 0.84242L25.6875 0.83992L24.6875 0.837545L24.0721 1.14042L23.4568 1.44329L22.9657 1.93429L22.4748 2.42529L22.2171 3.00642L21.9595 3.58754L21.9007 4.49379L21.8421 5.40004H18.9998H16.1572L16.0693 4.49379L15.9811 3.58754L15.7546 3.07229L15.5281 2.55692L15.0533 2.03129L14.5784 1.50567L13.9454 1.18429L13.3125 0.863045L12.5 0.815545L11.6875 0.76792L11.0415 0.998795ZM13.1357 3.59729L13.3771 3.81579L13.5121 4.26604L13.647 4.71642L13.6047 6.86279L13.5625 9.00917L13.1954 9.39205L12.8282 9.77505H12.2795H11.7308L11.3654 9.40967L11 9.0443V6.66554V4.28679L11.1345 3.99167L11.269 3.69642L11.6032 3.48204L11.9375 3.26767L12.416 3.32329L12.8944 3.37892L13.1357 3.59729ZM26.25 3.43492L26.5625 3.59104L26.781 4.02679L26.9996 4.46254L26.9998 6.54817L27 8.63379L26.8826 8.94242L26.7654 9.25105L26.4841 9.51305L26.2029 9.77505H25.7183H25.2336L24.9931 9.6463L24.7526 9.51767L24.5637 9.15254L24.375 8.78742V6.4563V4.12504L24.8 3.70004L25.225 3.27504L25.5812 3.27692L25.9375 3.27867L26.25 3.43492ZM39.9879 3.70567L40.3125 4.03005L40.3524 6.18092L40.3921 8.33192L40.3129 8.75455L40.2336 9.17717L39.911 9.47617L39.5885 9.77505H39.072H38.5556L38.295 9.59255L38.0345 9.41005L37.8843 9.04755L37.7341 8.68504L37.7734 6.34454L37.8125 4.00405L38.2365 3.62542L38.6605 3.24692L39.1618 3.31417L39.6631 3.38142L39.9879 3.70567ZM8.50012 8.61879L8.50025 9.33755L8.85563 10.0875L9.211 10.8375L9.74463 11.3187L10.2782 11.7999L10.7954 12.0348L11.3125 12.2695L12.2612 12.2723L13.2101 12.275L13.975 11.8928L14.74 11.5105L15.0769 11.1115L15.4137 10.7125L15.6991 10.0985L15.9845 9.48442L16.0693 8.6923L16.1541 7.90004H18.9977H21.8414L21.9026 8.7563L21.9639 9.61242L22.3215 10.2694L22.6791 10.9264L23.2215 11.4038L23.7639 11.8813L24.3417 12.0782L24.9195 12.275H25.7523H26.5851L27.3533 11.8912L28.1214 11.5073L28.4974 11.0513L28.8732 10.5952L29.1299 10.0493L29.3864 9.50342L29.4613 8.7018L29.5361 7.90004H32.376H35.2158L35.281 8.71317L35.3464 9.52642L35.6801 10.2088L36.014 10.8912L36.5765 11.3862L37.1389 11.8813L37.7168 12.0782L38.2945 12.275H39.1273H39.9601L40.7294 11.8905L41.4987 11.5062L41.9342 10.9747L42.3698 10.4433L42.5654 9.9748L42.7611 9.50642L42.8361 8.70317L42.9111 7.90004H44.8355H46.76L47.2393 8.14455L47.7185 8.38904L48.0658 8.8008L48.4129 9.21255L48.5815 9.6148L48.75 10.017V12.5835V15.15H25.6875H2.625V12.5332V9.9163L2.74163 9.60955L2.85825 9.3028L3.26038 8.8448L3.66263 8.3868L4.1125 8.14892L4.5625 7.91105L6.53125 7.90554L8.5 7.90004L8.50012 8.61879ZM48.75 27.8237V37.9972L48.3315 38.0758L47.913 38.1543L44.7675 36.7679L41.622 35.3817L41.2011 35.5205L40.7803 35.6594L40.5464 35.9177L40.3125 36.1758L40.2754 39.4759L40.2384 42.776L39.543 43.7443L38.8478 44.7125L38.4222 45.5563L37.9969 46.4H21.3694H4.742L4.33975 46.2315L3.9375 46.0629L3.54538 45.7323L3.15325 45.4015L2.88913 44.8397L2.625 44.2778V30.9639V17.65H25.6875H48.75V27.8237ZM17.1875 21.8932L16.9375 21.9955L16.6875 22.2732L16.4375 22.5508L16.4 25.6844L16.3625 28.8182L16.511 29.1765L16.6595 29.535L16.92 29.7175L17.1806 29.9H20.4749H23.7693L24.1346 29.5347L24.5 29.1693V25.9014V22.6337L24.3713 22.3932L24.2426 22.1527L23.8775 21.9638L23.5124 21.775L20.475 21.7829L17.4375 21.7909L17.1875 21.8932ZM27.7219 21.9667L27.3813 22.1548L27.2531 22.3942L27.125 22.6337V25.9014V29.1693L27.4904 29.5347L27.8557 29.9H31.1501H34.4444L34.705 29.7175L34.9655 29.535L35.114 29.1765L35.2625 28.8182L35.225 25.6742L35.1875 22.5303L34.8411 22.1839L34.4948 21.8375L31.2786 21.808L28.0625 21.7787L27.7219 21.9667ZM38.625 21.8633L38.4375 21.9319L38.1581 22.1859L37.8789 22.44L37.803 22.8444L37.7271 23.2487L37.8774 23.5432L38.0277 23.8375L39.0424 24.8689L40.0571 25.9002L38.969 26.9939L37.8807 28.0875L37.8032 28.4765L37.7256 28.8654L37.9266 29.254L38.1276 29.6427L38.3681 29.7713L38.6086 29.9H39.0711H39.5336L40.6731 28.7838L41.8125 27.6675L42.9621 28.7838L44.1118 29.9H44.628H45.1442L45.5096 29.5347L45.875 29.1693V28.7784V28.3877L45.6966 28.05L45.5184 27.7125L44.574 26.7804L43.6296 25.8484L44.7523 24.7035L45.875 23.5587V23.1V22.6413L45.6814 22.3458L45.4879 22.0503L45.1214 21.8985L44.7549 21.7467L44.4086 21.8309L44.0625 21.915L42.9689 22.9985L41.8754 24.082L40.9064 23.1338L39.9375 22.1855L39.6284 21.9803L39.3194 21.775L39.0659 21.7849L38.8125 21.7948L38.625 21.8633ZM22 25.8375V27.4H20.4375H18.875V25.8375V24.275H20.4375H22V25.8375ZM32.75 25.8375V27.4H31.1875H29.625V25.8375V24.275H31.1875H32.75V25.8375ZM6.4235 33.5194L6.1595 33.6292L5.89225 33.969L5.625 34.3088V37.5515V40.7943L5.99038 41.1597L6.35575 41.525H9.6875H13.0192L13.3846 41.1597L13.75 40.7943V37.5367V34.279L13.3855 33.8708L13.0209 33.4625L9.85425 33.4362L6.6875 33.4097L6.4235 33.5194ZM17.0281 33.6505L16.6187 33.9002L16.4969 34.2208L16.375 34.5413V37.5394V40.5374L16.5637 40.9025L16.7526 41.2677L16.9931 41.3963L17.2336 41.525H20.5431H23.8528L24.1764 41.1404L24.5 40.7559V37.511V34.2663L24.3043 33.9675L24.1085 33.6688L23.7231 33.5344L23.3377 33.4L20.3876 33.4005L17.4375 33.4009L17.0281 33.6505ZM27.8244 33.5909L27.4611 33.7804L27.297 33.9964L27.133 34.2125L27.129 37.4842L27.125 40.7559L27.4486 41.1404L27.7722 41.525H31.0819H34.3914L34.6319 41.3963L34.8724 41.2677L35.0612 40.9025L35.25 40.5374V37.5394V34.5413L35.1281 34.2208L35.0062 33.9002L34.5969 33.6505L34.1875 33.4009L31.1875 33.4013L28.1875 33.4015L27.8244 33.5909ZM11.25 37.4625V39.025H9.6875H8.125V37.4625V35.9H9.6875H11.25V37.4625ZM22 37.4625V39.025H20.4375H18.875V37.4625V35.9H20.4375H22V37.4625ZM32.75 37.4625V39.025H31.1875H29.625V37.4625V35.9H31.1875H32.75V37.4625ZM49.6875 44.0388L49.4375 44.1842L49.1434 44.4484L48.8493 44.7125L48.2407 45.9217L47.6324 47.1309L47.4099 47.1963L47.1875 47.2618L46.125 47.4025L45.0625 47.5432L44.7181 47.6745L44.3739 47.8058L44.0046 48.2263L43.6355 48.6468L43.5005 49.1484L43.3654 49.65L43.5078 50.179L43.6502 50.708L44.7139 51.795L45.7775 52.8819L45.5762 54.0628L45.375 55.2435V55.703V56.1624L45.5624 56.5248L45.7497 56.8872L46.1926 57.2249L46.6355 57.5628L47.2736 57.624L47.9116 57.6854L49.2694 57.0155L50.627 56.3457L51.8586 56.9978L53.0902 57.65L53.7014 57.6495L54.3125 57.6492L54.7379 57.3898L55.1634 57.1304L55.392 56.8589L55.6206 56.5875L55.7514 56.1238L55.882 55.6599L55.6333 54.2488L55.3845 52.8375L56.3089 51.9482L57.2331 51.0588L57.4911 50.6357L57.7491 50.2125L57.7467 49.7125L57.7445 49.2125L57.5119 48.7002L57.2791 48.1878L56.8812 47.9045L56.4834 47.6212L55.0277 47.3999L53.572 47.1785L53.531 47.0705L53.4899 46.9625L52.8387 45.7194L52.1875 44.4763L51.8424 44.2253L51.4972 43.9742L50.7174 43.9338L49.9375 43.8934L49.6875 44.0388ZM51.1097 47.8688L51.5973 48.8375L51.8345 49.0515L52.0716 49.2655L52.5046 49.4439L52.9375 49.6223L53.625 49.7077L54.3125 49.7932L54.5373 49.8569L54.7621 49.9208L53.888 50.8409L53.014 51.7612L52.9266 52.2268L52.8392 52.6925L53.0207 53.7338L53.2024 54.775H53.0967H52.9911L52.0475 54.275L51.1037 53.775H50.639H50.1743L49.1326 54.2788L48.0909 54.7825L48.0332 54.7249L47.9756 54.6673L48.1128 54.0275L48.25 53.3878V52.7487V52.1095L47.9458 51.5985L47.6415 51.0875L47.0008 50.5429L46.3601 49.9983L46.4124 49.946L46.4646 49.8937L47.5312 49.721L48.5978 49.5484L48.8442 49.4165L49.0908 49.2845L49.4516 48.8694L49.8125 48.4542L50.1792 47.6772L50.546 46.9H50.5841H50.6222L51.1097 47.8688ZM49.8887 62.4495L49.59 62.615L49.4245 62.9138L49.2589 63.2125L49.2544 63.5L49.25 63.7874L49.4281 64.1319L49.6063 64.4764L49.934 64.6257L50.2617 64.775H50.5588H50.8559L51.2313 64.4592L51.6066 64.1433L51.69 63.7634L51.7735 63.3835L51.6191 63.0109L51.4647 62.6383L51.1136 62.4567L50.7624 62.275L50.475 62.2794L50.1875 62.2839L49.8887 62.4495Z" fill="#896442"/>
</svg>
