<svg width="14" height="14" viewBox="0 0 14 14" fill="none" xmlns="http://www.w3.org/2000/svg">
<path d="M7 5.82047L1.05663 3.68223M7 5.82047L12.9452 3.68929M7 5.82047V12.9194M2.42332 11.3847L6.28998 12.7494C6.5531 12.8422 6.68466 12.8887 6.8196 12.9071C6.93931 12.9234 7.06069 12.9234 7.1804 12.9071C7.31534 12.8887 7.4469 12.8422 7.71002 12.7494L11.5767 11.3847C12.0891 11.2038 12.3454 11.1134 12.5345 10.9512C12.7016 10.808 12.8306 10.6256 12.91 10.4204C13 10.1881 13 9.91638 13 9.37295V4.62697C13 4.08354 13 3.81182 12.91 3.57949C12.8306 3.37429 12.7016 3.19194 12.5345 3.04872C12.3454 2.88656 12.0891 2.79612 11.5767 2.61526L7.71002 1.25055C7.4469 1.15769 7.31534 1.11125 7.1804 1.09283C7.06069 1.07648 6.93931 1.07648 6.8196 1.09283C6.68466 1.11125 6.5531 1.15769 6.28998 1.25055L2.42332 2.61526C1.91086 2.79612 1.65464 2.88656 1.46549 3.04872C1.29844 3.19194 1.16943 3.37429 1.08997 3.57949C1 3.81182 1 4.08354 1 4.62697V9.37295C1 9.91638 1 10.1881 1.08997 10.4204C1.16943 10.6256 1.29844 10.808 1.46549 10.9512C1.65464 11.1134 1.91086 11.2038 2.42332 11.3847Z" stroke="#C58734" stroke-width="2" stroke-linecap="round" stroke-linejoin="round"/>
</svg>
