<svg width="20" height="16" viewBox="0 0 20 16" fill="none" xmlns="http://www.w3.org/2000/svg">
<path d="M2.63803 14.673L2.18404 15.564L2.63803 14.673ZM1.32698 13.362L0.435974 13.816L1.32698 13.362ZM18.673 13.362L19.564 13.816L18.673 13.362ZM17.362 14.673L17.816 15.564L17.362 14.673ZM17.362 1.32698L17.816 0.435974L17.362 1.32698ZM18.673 2.63803L19.564 2.18404L18.673 2.63803ZM2.63803 1.32698L2.18404 0.435974L2.63803 1.32698ZM1.32698 2.63803L0.435974 2.18404L1.32698 2.63803ZM1.12061 13.491C0.766965 13.9152 0.824177 14.5458 1.24839 14.8994C1.6726 15.2531 2.30318 15.1958 2.65682 14.7716L1.12061 13.491ZM7.76811 8.64031C8.12175 8.2161 8.06454 7.58552 7.64032 7.23188C7.21611 6.87824 6.58553 6.93546 6.23189 7.35967L7.76811 8.64031ZM17.3453 14.77C17.6991 15.1941 18.3297 15.2511 18.7538 14.8973C19.1779 14.5435 19.2349 13.9129 18.8811 13.4888L17.3453 14.77ZM13.7679 7.35941C13.4141 6.93532 12.7835 6.87832 12.3594 7.2321C11.9353 7.58589 11.8783 8.21648 12.2321 8.64057L13.7679 7.35941ZM1.58388 3.16821C1.1245 2.86163 0.503574 2.98551 0.197001 3.44489C-0.109573 3.90427 0.0143022 4.5252 0.473683 4.83177L1.58388 3.16821ZM8.255 8.82249L7.6999 9.65428L7.70142 9.65529L8.255 8.82249ZM11.7979 8.82249L12.3515 9.6553L12.3558 9.65239L11.7979 8.82249ZM19.5291 4.82989C19.9875 4.52175 20.1092 3.90041 19.8011 3.44207C19.493 2.98373 18.8716 2.86197 18.4133 3.1701L19.5291 4.82989ZM9.56141 9.54364L9.79392 8.57105H9.79392L9.56141 9.54364ZM10.4915 9.54364L10.2589 8.57105L10.4915 9.54364ZM5.8 2H14.2V0H5.8V2ZM18 5.8V10.2H20V5.8H18ZM14.2 14H5.8V16H14.2V14ZM2 10.2V5.8H0V10.2H2ZM5.8 14C4.94342 14 4.36113 13.9992 3.91104 13.9624C3.47262 13.9266 3.24842 13.8617 3.09202 13.782L2.18404 15.564C2.66937 15.8113 3.18608 15.9099 3.74817 15.9558C4.2986 16.0008 4.97642 16 5.8 16V14ZM0 10.2C0 11.0236 -0.000777721 11.7014 0.0441936 12.2518C0.0901188 12.8139 0.188683 13.3306 0.435974 13.816L2.21799 12.908C2.1383 12.7516 2.07337 12.5274 2.03755 12.089C2.00078 11.6389 2 11.0566 2 10.2H0ZM3.09202 13.782C2.71569 13.5903 2.40973 13.2843 2.21799 12.908L0.435974 13.816C0.819468 14.5686 1.43139 15.1805 2.18404 15.564L3.09202 13.782ZM18 10.2C18 11.0566 17.9992 11.6389 17.9624 12.089C17.9266 12.5274 17.8617 12.7516 17.782 12.908L19.564 13.816C19.8113 13.3306 19.9099 12.8139 19.9558 12.2518C20.0008 11.7014 20 11.0236 20 10.2H18ZM14.2 16C15.0236 16 15.7014 16.0008 16.2518 15.9558C16.8139 15.9099 17.3306 15.8113 17.816 15.564L16.908 13.782C16.7516 13.8617 16.5274 13.9266 16.089 13.9624C15.6389 13.9992 15.0566 14 14.2 14V16ZM17.782 12.908C17.5903 13.2843 17.2843 13.5903 16.908 13.782L17.816 15.564C18.5686 15.1805 19.1805 14.5686 19.564 13.816L17.782 12.908ZM14.2 2C15.0566 2 15.6389 2.00078 16.089 2.03755C16.5274 2.07337 16.7516 2.1383 16.908 2.21799L17.816 0.435974C17.3306 0.188683 16.8139 0.0901188 16.2518 0.0441936C15.7014 -0.000777721 15.0236 0 14.2 0V2ZM20 5.8C20 4.97642 20.0008 4.2986 19.9558 3.74817C19.9099 3.18608 19.8113 2.66937 19.564 2.18404L17.782 3.09202C17.8617 3.24842 17.9266 3.47262 17.9624 3.91104C17.9992 4.36113 18 4.94342 18 5.8H20ZM16.908 2.21799C17.2843 2.40973 17.5903 2.7157 17.782 3.09202L19.564 2.18404C19.1805 1.43139 18.5686 0.819467 17.816 0.435974L16.908 2.21799ZM5.8 0C4.97642 0 4.2986 -0.000777721 3.74817 0.0441936C3.18608 0.0901188 2.66937 0.188683 2.18404 0.435974L3.09202 2.21799C3.24842 2.1383 3.47262 2.07337 3.91104 2.03755C4.36113 2.00078 4.94342 2 5.8 2V0ZM2 5.8C2 4.94342 2.00078 4.36113 2.03755 3.91104C2.07337 3.47262 2.1383 3.24842 2.21799 3.09202L0.435974 2.18404C0.188683 2.66937 0.0901188 3.18608 0.0441936 3.74817C-0.000777721 4.2986 0 4.97642 0 5.8H2ZM2.18404 0.435974C1.43139 0.819467 0.819467 1.43139 0.435974 2.18404L2.21799 3.09202C2.40973 2.71569 2.71569 2.40973 3.09202 2.21799L2.18404 0.435974ZM2.65682 14.7716L7.76811 8.64031L6.23189 7.35967L1.12061 13.491L2.65682 14.7716ZM18.8811 13.4888L13.7679 7.35941L12.2321 8.64057L17.3453 14.77L18.8811 13.4888ZM0.473683 4.83177L7.6999 9.65427L8.8101 7.99071L1.58388 3.16821L0.473683 4.83177ZM12.3558 9.65239L19.5291 4.82989L18.4133 3.1701L11.24 7.9926L12.3558 9.65239ZM7.70142 9.65529C8.27653 10.0376 8.76846 10.3823 9.3289 10.5162L9.79392 8.57105C9.66252 8.53963 9.51411 8.45867 8.80857 7.98969L7.70142 9.65529ZM11.2443 7.98969C10.5388 8.45868 10.3903 8.53963 10.2589 8.57105L10.724 10.5162C11.2844 10.3823 11.7763 10.0376 12.3514 9.65529L11.2443 7.98969ZM9.3289 10.5162C9.78746 10.6259 10.2654 10.6259 10.724 10.5162L10.2589 8.57105C10.1061 8.60759 9.94678 8.60759 9.79392 8.57105L9.3289 10.5162Z" fill="#C58734"/>
</svg>
