<svg width="29" height="29" viewBox="0 0 29 29" fill="none" xmlns="http://www.w3.org/2000/svg">
<path fill-rule="evenodd" clip-rule="evenodd" d="M28 14.5C28 21.9558 21.9558 28 14.5 28C7.04416 28 1 21.9558 1 14.5C1 7.04416 7.04416 1 14.5 1C21.9558 1 28 7.04416 28 14.5ZM14.9838 10.9663C13.6707 11.5125 11.0464 12.6429 7.11087 14.3575C6.4718 14.6116 6.13703 14.8603 6.10655 15.1034C6.05505 15.5142 6.56954 15.676 7.27015 15.8963C7.36545 15.9262 7.46419 15.9573 7.56542 15.9902C8.2547 16.2143 9.18192 16.4764 9.66393 16.4868C10.1012 16.4962 10.5892 16.316 11.128 15.946C14.805 13.4639 16.7032 12.2093 16.8223 12.1822C16.9064 12.1632 17.0229 12.1392 17.1018 12.2093C17.1808 12.2795 17.173 12.4124 17.1647 12.448C17.1137 12.6653 15.0941 14.5429 14.049 15.5145C13.7232 15.8174 13.4921 16.0323 13.4448 16.0814C13.339 16.1913 13.2311 16.2953 13.1275 16.3952C12.4871 17.0125 12.0069 17.4754 13.1541 18.2314C13.7053 18.5947 14.1465 18.8951 14.5866 19.1948C15.0672 19.5221 15.5466 19.8486 16.1668 20.2551C16.3248 20.3587 16.4757 20.4663 16.6227 20.5711C17.1821 20.9699 17.6846 21.3281 18.3054 21.271C18.6661 21.2378 19.0388 20.8986 19.228 19.8869C19.6752 17.496 20.5543 12.3158 20.7575 10.1811C20.7753 9.99407 20.7529 9.75472 20.7349 9.64965C20.7169 9.54458 20.6793 9.39487 20.5428 9.28405C20.381 9.1528 20.1313 9.12513 20.0196 9.127C19.5119 9.13604 18.7329 9.40692 14.9838 10.9663Z" stroke="#C58734" stroke-width="2" stroke-linejoin="round"/>
</svg>
