<svg width="29" height="30" viewBox="0 0 29 30" fill="none" xmlns="http://www.w3.org/2000/svg">
<path d="M2.96204 2.9785L2.59718 2.63657L2.60127 2.63231L2.96204 2.9785ZM2.96204 27.2858L2.60043 27.6312L2.59641 27.6268L2.96204 27.2858ZM25.9587 27.2858L26.3236 27.6277L26.3195 27.632L25.9587 27.2858ZM25.9587 2.9785L26.3203 2.63313L26.3244 2.63745L25.9587 2.9785ZM5.60047 9.60185L5.10056 9.61155C5.09796 9.47729 5.14947 9.34762 5.2435 9.25175C5.33753 9.15587 5.46618 9.10185 5.60047 9.10185V9.60185ZM15.6727 21.3598H16.1727C16.1727 21.6359 15.9488 21.8598 15.6727 21.8598V21.3598ZM15.6727 17.1578H15.1727C15.1727 17.0161 15.2328 16.8811 15.3381 16.7862C15.4435 16.6914 15.5841 16.6457 15.725 16.6606L15.6727 17.1578ZM20.2809 21.3598V21.8598C20.0607 21.8598 19.8664 21.7157 19.8025 21.505L20.2809 21.3598ZM23.4452 21.3598L23.9296 21.2359C23.9679 21.3855 23.9349 21.5444 23.8401 21.6664C23.7454 21.7884 23.5996 21.8598 23.4452 21.8598V21.3598ZM18.8726 15.462L18.6398 15.9045C18.4824 15.8217 18.3809 15.6615 18.3731 15.4839C18.3653 15.3062 18.4524 15.1378 18.602 15.0415L18.8726 15.462ZM21.4034 12.9573L21.8198 13.2342L21.4034 12.9573ZM22.7767 9.59243V9.09243C22.9259 9.09243 23.0674 9.1591 23.1624 9.27423C23.2573 9.38935 23.2959 9.54088 23.2676 9.68741L22.7767 9.59243ZM19.9066 9.59243L19.4235 9.46343C19.4819 9.24464 19.6801 9.09243 19.9066 9.09243V9.59243ZM15.6727 14.2466L15.7287 14.7435C15.5872 14.7594 15.4456 14.7143 15.3395 14.6194C15.2333 14.5246 15.1727 14.389 15.1727 14.2466H15.6727ZM15.6727 9.60185V9.10185C15.9488 9.10185 16.1727 9.32571 16.1727 9.60185H15.6727ZM12.7936 9.60185H12.2936C12.2936 9.32571 12.5175 9.10185 12.7936 9.10185V9.60185ZM12.7936 17.742H13.2936C13.2936 17.8971 13.2216 18.0435 13.0987 18.1381C12.9758 18.2328 12.8159 18.265 12.6659 18.2254L12.7936 17.742ZM8.66669 9.60185V9.10185C8.93929 9.10185 9.16165 9.3202 9.16661 9.59276L8.66669 9.60185ZM0.590214 14.5669C0.590214 11.3816 0.58927 8.94645 0.828154 7.05994C1.06852 5.16173 1.55925 3.74416 2.59721 2.6366L3.32687 3.3204C2.493 4.21019 2.04782 5.38822 1.82023 7.18556C1.59116 8.99461 1.59021 11.355 1.59021 14.5669H0.590214ZM0.590214 15.6974V14.5669H1.59021V15.6974H0.590214ZM2.59641 27.6268C1.55923 26.5149 1.06853 25.0956 0.828154 23.1973C0.589272 21.3108 0.590214 18.878 0.590214 15.6974H1.59021C1.59021 18.9046 1.59116 21.2626 1.82023 23.0717C2.04781 24.8689 2.49303 26.0499 3.32767 26.9447L2.59641 27.6268ZM13.9256 29.7643C10.9143 29.7643 8.60409 29.7655 6.81281 29.512C5.00421 29.2562 3.65213 28.7322 2.60046 27.6311L3.32362 26.9404C4.1616 27.8178 5.26517 28.2831 6.95288 28.5219C8.65789 28.7631 10.8846 28.7643 13.9256 28.7643V29.7643ZM14.9952 29.7643H13.9256V28.7643H14.9952V29.7643ZM26.3195 27.632C25.2636 28.7323 23.9099 29.2562 22.1013 29.512C20.31 29.7655 18.002 29.7643 14.9952 29.7643V28.7643C18.0317 28.7643 20.2562 28.7631 21.9612 28.5219C23.6489 28.2831 24.7553 27.8178 25.598 26.9396L26.3195 27.632ZM28.3306 15.6974C28.3306 18.8827 28.3315 21.3178 28.0926 23.2043C27.8523 25.1026 27.3615 26.5201 26.3236 27.6277L25.5939 26.9439C26.4278 26.0541 26.873 24.8761 27.1005 23.0787C27.3296 21.2697 27.3306 18.9093 27.3306 15.6974H28.3306ZM28.3306 14.5669V15.6974H27.3306V14.5669H28.3306ZM26.3244 2.63745C27.3616 3.7494 27.8523 5.16869 28.0926 7.067C28.3315 8.95351 28.3306 11.3863 28.3306 14.5669H27.3306C27.3306 11.3597 27.3296 9.00168 27.1005 7.19263C26.873 5.39539 26.4278 4.21436 25.5931 3.31955L26.3244 2.63745ZM14.9952 0.5C18.0065 0.5 20.3167 0.498827 22.108 0.752242C23.9166 1.00811 25.2687 1.53204 26.3203 2.63316L25.5972 3.32384C24.7592 2.44646 23.6556 1.98114 21.9679 1.74238C20.2629 1.50117 18.0362 1.5 14.9952 1.5V0.5ZM13.9256 0.5H14.9952V1.5H13.9256V0.5ZM2.60127 2.63231C3.65714 1.53199 5.01084 1.00811 6.81949 0.752242C8.61077 0.498828 10.9187 0.5 13.9256 0.5V1.5C10.8891 1.5 8.66459 1.50117 6.95957 1.74238C5.27192 1.98114 4.1655 2.44651 3.3228 3.32469L2.60127 2.63231ZM15.3161 21.8598C12.1357 21.8598 9.59296 20.7034 7.83808 18.5527C6.09547 16.4171 5.17321 13.3552 5.10056 9.61155L6.10037 9.59215C6.17034 13.1973 7.05751 16.0143 8.61288 17.9205C10.156 19.8116 12.3997 20.8598 15.3161 20.8598V21.8598ZM15.325 21.8598H15.3161V20.8598H15.325V21.8598ZM15.6727 21.8598H15.325V20.8598H15.6727V21.8598ZM16.1727 17.1578V21.3598H15.1727V17.1578H16.1727ZM19.8025 21.505C19.1676 19.4123 17.6086 17.8644 15.6203 17.6551L15.725 16.6606C18.2113 16.9223 20.0394 18.8415 20.7594 21.2146L19.8025 21.505ZM23.4452 21.8598H20.2809V20.8598H23.4452V21.8598ZM22.1523 17.5863C22.9832 18.658 23.5884 19.902 23.9296 21.2359L22.9608 21.4837C22.6529 20.2799 22.1075 19.1606 21.362 18.1991L22.1523 17.5863ZM19.1054 15.0195C20.2833 15.6392 21.3213 16.5146 22.1523 17.5863L21.362 18.1991C20.6166 17.2376 19.6884 16.4561 18.6398 15.9045L19.1054 15.0195ZM21.8198 13.2342C21.1107 14.3002 20.2 15.2022 19.1432 15.8824L18.602 15.0415C19.5403 14.4376 20.3527 13.6343 20.9871 12.6804L21.8198 13.2342ZM23.2676 9.68741C23.0212 10.9608 22.5287 12.1683 21.8198 13.2342L20.9871 12.6804C21.6216 11.7265 22.0641 10.643 22.2858 9.49745L23.2676 9.68741ZM19.9066 9.09243H22.7767V10.0924H19.9066V9.09243ZM15.6167 13.7498C16.3262 13.6698 17.1249 13.1855 17.8422 12.3873C18.5516 11.598 19.1323 10.5539 19.4235 9.46343L20.3896 9.72143C20.0569 10.9675 19.3986 12.1515 18.586 13.0557C17.7813 13.9511 16.7751 14.6256 15.7287 14.7435L15.6167 13.7498ZM16.1727 9.60185V14.2466H15.1727V9.60185H16.1727ZM12.7936 9.10185H15.6727V10.1019H12.7936V9.10185ZM12.2936 17.742V9.60185H13.2936V17.742H12.2936ZM9.16661 9.59276C9.2625 14.8628 11.4414 16.8675 12.9214 17.2586L12.6659 18.2254C10.5805 17.6743 8.26699 15.119 8.16678 9.61095L9.16661 9.59276ZM5.60047 9.10185H8.66669V10.1019H5.60047V9.10185Z" fill="white"/>
</svg>
