<svg width="22" height="24" viewBox="0 0 22 24" fill="none" xmlns="http://www.w3.org/2000/svg">
<mask id="path-1-outside-1_586_18350" maskUnits="userSpaceOnUse" x="0" y="0" width="22" height="24" fill="black">
<rect fill="white" width="22" height="24"/>
<path fill-rule="evenodd" clip-rule="evenodd" d="M3.26 3.33181C2 4.6763 2 6.82621 2 11.1324V11.8934C2 16.1933 2 18.3432 3.26 19.694C4.532 21.0258 6.566 21.0258 10.64 21.0258H11.36C15.428 21.0258 17.462 21.0258 18.74 19.694C20 18.3495 20 16.1996 20 11.8934V11.1324C20 6.83256 20 4.68264 18.74 3.33181C17.468 2 15.434 2 11.36 2H10.64C6.572 2 4.538 2 3.26 3.33181ZM5.03604 7.79032C5.13204 12.737 7.47203 15.7051 11.576 15.7051H11.582H11.816V12.8766C13.322 13.0351 14.462 14.202 14.918 15.7051H17.048C16.8296 14.851 16.4423 14.0555 15.9117 13.3712C15.3812 12.6869 14.7194 12.1292 13.97 11.735C14.6415 11.3028 15.2215 10.7288 15.6736 10.049C16.1258 9.3692 16.4405 8.59813 16.598 7.78397H14.666C14.246 9.35677 12.998 10.7837 11.816 10.9169V7.79032H9.87803V13.2698C8.67803 12.9527 7.16604 11.4179 7.10004 7.79032H5.03604Z"/>
</mask>
<path d="M3.26 3.33181L1.80068 1.96419C1.80607 1.95844 1.81149 1.95273 1.81694 1.94705L3.26 3.33181ZM3.26 19.694L1.81369 21.0754C1.80825 21.0697 1.80285 21.064 1.79747 21.0582L3.26 19.694ZM18.74 19.694L20.1993 21.0616C20.1939 21.0674 20.1885 21.0731 20.1831 21.0788L18.74 19.694ZM18.74 3.33181L20.1863 1.95044C20.1918 1.95614 20.1972 1.96186 20.2025 1.96762L18.74 3.33181ZM5.03604 7.79032L3.03641 7.82912C3.02599 7.29206 3.23204 6.77339 3.60817 6.38989C3.98429 6.00639 4.49888 5.79032 5.03604 5.79032V7.79032ZM11.816 15.7051H13.816C13.816 16.8096 12.9206 17.7051 11.816 17.7051V15.7051ZM11.816 12.8766H9.81604C9.81604 12.3097 10.0566 11.7694 10.4779 11.3901C10.8992 11.0109 11.4617 10.8282 12.0254 10.8875L11.816 12.8766ZM14.918 15.7051V17.7051C14.0371 17.7051 13.2599 17.1287 13.0042 16.2857L14.918 15.7051ZM17.048 15.7051L18.9857 15.2094C19.1387 15.8079 19.0067 16.4436 18.6278 16.9316C18.2489 17.4196 17.6658 17.7051 17.048 17.7051V15.7051ZM15.9117 13.3712L17.4923 12.1458L17.4923 12.1458L15.9117 13.3712ZM13.97 11.735L13.0389 13.505C12.4093 13.1738 12.0031 12.5332 11.972 11.8226C11.9408 11.112 12.2894 10.4383 12.8875 10.0533L13.97 11.735ZM15.6736 10.049L17.3389 11.1567L15.6736 10.049ZM16.598 7.78397V5.78397C17.195 5.78397 17.7608 6.05066 18.1407 6.51115C18.5207 6.97164 18.675 7.57778 18.5616 8.1639L16.598 7.78397ZM14.666 7.78397L12.7337 7.26798C12.9675 6.3928 13.7602 5.78397 14.666 5.78397V7.78397ZM11.816 10.9169L12.04 12.9043C11.4741 12.9681 10.9079 12.7876 10.4833 12.4082C10.0588 12.0287 9.81604 11.4863 9.81604 10.9169H11.816ZM11.816 7.79032V5.79032C12.9206 5.79032 13.816 6.68575 13.816 7.79032H11.816ZM9.87803 7.79032H7.87803C7.87803 6.68575 8.77347 5.79032 9.87803 5.79032V7.79032ZM9.87803 13.2698H11.878C11.878 13.8903 11.59 14.4757 11.0983 14.8544C10.6066 15.233 9.96705 15.3619 9.36708 15.2034L9.87803 13.2698ZM7.10004 7.79032V5.79032C8.19042 5.79032 9.07987 6.66373 9.0997 7.75393L7.10004 7.79032ZM3.8147e-06 11.1324C3.8147e-06 9.03261 -0.00377083 7.26897 0.173349 5.87022C0.356394 4.42467 0.762501 3.07199 1.80068 1.96419L4.71933 4.69942C4.49751 4.93612 4.27362 5.33064 4.14166 6.37271C4.00378 7.46159 4 8.926 4 11.1324H3.8147e-06ZM3.8147e-06 11.8934V11.1324H4V11.8934H3.8147e-06ZM1.79747 21.0582C0.7624 19.9485 0.356445 18.5968 0.173349 17.1508C-0.00376701 15.7521 3.8147e-06 13.9901 3.8147e-06 11.8934H4C4 14.0965 4.00378 15.5594 4.14166 16.6483C4.27356 17.69 4.49761 18.0887 4.72254 18.3298L1.79747 21.0582ZM10.64 23.0258C8.66238 23.0258 6.9684 23.0305 5.6191 22.8396C4.20058 22.6389 2.87706 22.1887 1.81369 21.0754L4.70632 18.3126C4.91495 18.5311 5.24443 18.7468 6.17941 18.8791C7.1836 19.0211 8.54363 19.0258 10.64 19.0258V23.0258ZM11.36 23.0258H10.64V19.0258H11.36V23.0258ZM20.1831 21.0788C19.1177 22.189 17.7952 22.6389 16.3764 22.8396C15.0271 23.0305 13.3347 23.0258 11.36 23.0258V19.0258C13.4533 19.0258 14.8119 19.0211 15.8161 18.8791C16.7508 18.7468 17.0843 18.5309 17.2969 18.3092L20.1831 21.0788ZM22 11.8934C22 13.9932 22.0038 15.7568 21.8267 17.1556C21.6436 18.6011 21.2375 19.9538 20.1993 21.0616L17.2807 18.3264C17.5025 18.0897 17.7264 17.6952 17.8583 16.6531C17.9962 15.5642 18 14.0998 18 11.8934H22ZM22 11.1324V11.8934H18V11.1324H22ZM20.2025 1.96762C21.2376 3.07731 21.6436 4.42902 21.8267 5.87498C22.0038 7.2737 22 9.03568 22 11.1324H18C18 8.92927 17.9962 7.46637 17.8583 6.37747C17.7264 5.3358 17.5024 4.93713 17.2775 4.69599L20.2025 1.96762ZM11.36 0C13.3376 0 15.0316 -0.00469255 16.3809 0.186194C17.7994 0.386874 19.1229 0.837077 20.1863 1.95044L17.2937 4.71317C17.0851 4.49473 16.7556 4.27903 15.8206 4.14676C14.8164 4.00469 13.4564 4 11.36 4V0ZM10.64 0H11.36V4H10.64V0ZM1.81694 1.94705C2.88229 0.836845 4.20485 0.386907 5.6236 0.186194C6.97288 -0.00468898 8.66527 0 10.64 0V4C8.54674 4 7.18813 4.00469 6.18391 4.14676C5.24916 4.279 4.91572 4.49496 4.70307 4.71657L1.81694 1.94705ZM11.576 17.7051C8.99603 17.7051 6.78702 16.7466 5.25344 14.8671C3.76897 13.0479 3.08979 10.5795 3.03641 7.82912L7.03566 7.75151C7.07828 9.94783 7.6171 11.4369 8.35263 12.3383C9.03905 13.1795 10.052 13.7051 11.576 13.7051V17.7051ZM11.582 17.7051H11.576V13.7051H11.582V17.7051ZM11.816 17.7051H11.582V13.7051H11.816V17.7051ZM13.816 12.8766V15.7051H9.81604V12.8766H13.816ZM13.0042 16.2857C12.7184 15.3437 12.1167 14.9193 11.6066 14.8656L12.0254 10.8875C14.5273 11.1509 16.2057 13.0603 16.8319 15.1244L13.0042 16.2857ZM17.048 17.7051H14.918V13.7051H17.048V17.7051ZM17.4923 12.1458C18.1937 13.0504 18.7006 14.0951 18.9857 15.2094L15.1104 16.2007C14.9585 15.6068 14.6909 15.0607 14.3311 14.5967L17.4923 12.1458ZM14.9012 9.965C15.9093 10.4953 16.7908 11.2409 17.4923 12.1458L14.3311 14.5967C13.9716 14.1329 13.5295 13.7631 13.0389 13.505L14.9012 9.965ZM17.3389 11.1567C16.7376 12.0607 15.961 12.8319 15.0525 13.4167L12.8875 10.0533C13.322 9.77361 13.7053 9.39699 14.0084 8.94137L17.3389 11.1567ZM18.5616 8.1639C18.3546 9.23381 17.9401 10.2529 17.3389 11.1567L14.0084 8.94137C14.3116 8.48551 14.5264 7.96246 14.6345 7.40404L18.5616 8.1639ZM14.666 5.78397H16.598V9.78397H14.666V5.78397ZM11.5921 8.92947C11.5094 8.93879 11.7017 8.92898 12.0392 8.55342C12.3449 8.21331 12.6068 7.74328 12.7337 7.26798L16.5983 8.29997C16.3052 9.39747 15.7332 10.4273 15.0143 11.2272C14.3273 11.9916 13.3047 12.7618 12.04 12.9043L11.5921 8.92947ZM13.816 7.79032V10.9169H9.81604V7.79032H13.816ZM9.87803 5.79032H11.816V9.79032H9.87803V5.79032ZM7.87803 13.2698V7.79032H11.878V13.2698H7.87803ZM9.0997 7.75393C9.1279 9.30361 9.46206 10.2245 9.76996 10.7279C10.0786 11.2325 10.3587 11.3281 10.389 11.3361L9.36708 15.2034C6.95611 14.5663 5.17503 11.9303 5.10037 7.8267L9.0997 7.75393ZM5.03604 5.79032H7.10004V9.79032H5.03604V5.79032Z" fill="#C58734" mask="url(#path-1-outside-1_586_18350)"/>
</svg>
