<svg width="41" height="41" viewBox="0 0 41 41" fill="none" xmlns="http://www.w3.org/2000/svg">
<path fill-rule="evenodd" clip-rule="evenodd" d="M2.85417 30.1645L0 40.5857L10.6646 37.7892C13.6032 39.3916 16.9114 40.2362 20.2779 40.2375H20.2866C31.374 40.2375 40.3995 31.2146 40.4044 20.1265C40.4063 14.7524 38.3151 9.69964 34.5175 5.89823C30.7187 2.09682 25.6679 0.00262486 20.2866 0C9.19738 0 0.173312 9.02142 0.168801 20.1103C0.167671 23.6547 1.09382 27.1148 2.85417 30.1645ZM3.56555 20.1113C3.56894 10.8951 11.0697 3.39709 20.2931 3.39709C24.7595 3.39898 28.9573 5.13969 32.1144 8.29906C35.2715 11.4584 37.009 15.6585 37.0073 20.1249C37.0035 29.3419 29.5028 36.8407 20.2866 36.8407H20.2802C17.2791 36.8392 14.3364 36.0337 11.7697 34.5103L11.1586 34.1482L4.83 35.8076L6.51961 29.6396L6.12173 29.0073C4.44803 26.3457 3.56419 23.2696 3.56555 20.1113Z" fill="white"/>
<path fill-rule="evenodd" clip-rule="evenodd" d="M15.2588 11.7026C14.882 10.8658 14.4856 10.8488 14.1277 10.8341C13.8345 10.8217 13.4992 10.8225 13.1642 10.8225C12.8289 10.8225 12.2844 10.9483 11.824 11.4513C11.3632 11.9543 10.0644 13.1702 10.0644 15.6435C10.0644 18.1167 11.8658 20.5063 12.1168 20.842C12.3681 21.1773 15.5941 26.4147 20.7037 28.4294C24.9497 30.1038 25.8137 29.7707 26.7357 29.6871C27.6573 29.6034 29.7097 28.4712 30.1283 27.2975C30.5473 26.1238 30.5473 25.1182 30.4218 24.9079C30.296 24.698 29.961 24.5726 29.458 24.3213C28.9554 24.0699 26.484 22.8537 26.0232 22.686C25.5624 22.5183 25.2274 22.4347 24.8921 22.9377C24.5571 23.4407 23.5944 24.5726 23.3009 24.9079C23.0078 25.2436 22.7146 25.2855 22.2116 25.0341C21.709 24.7821 20.0899 24.2519 18.1695 22.5394C16.6751 21.2071 15.6665 19.5617 15.3729 19.0587C15.0798 18.5556 15.3417 18.2836 15.5937 18.033C15.8194 17.8077 16.0964 17.446 16.3481 17.1525C16.5986 16.859 16.6827 16.6495 16.85 16.3145C17.0176 15.9788 16.934 15.6853 16.8081 15.434C16.6827 15.1826 15.7057 12.6966 15.2588 11.7026Z" fill="white"/>
</svg>
